<svg xmlns="http://www.w3.org/2000/svg" width="400" height="400" viewBox="0 0 400 400">
  <defs>
    <style>
      .cls-1 {
        fill: #764ba2;
        fill-rule: evenodd;
      }
    </style>
  </defs>
  <path id="這種字型_看起來_如何_" data-name="這種字型 看起來 如何？" class="cls-1" d="M42.348,19.073a10.384,10.384,0,0,0,.569,3.3q0.568,1.709,1.594,4.214,1.252,3.3,1.765,5.011a13.04,13.04,0,0,1,.512,3.759,1.765,1.765,0,0,1-.342,1.253,2.576,2.576,0,0,1-1.481.456,14.533,14.533,0,0,0-2.05.342q-0.913.115-2.961,0.456a14.724,14.724,0,0,0-3.474.968,2.321,2.321,0,0,0-1.424,2.335,9.038,9.038,0,0,0,.57,2.392,1.7,1.7,0,0,0,1.708,1.025,16.555,16.555,0,0,0,2.62-.456,21.667,21.667,0,0,1,5.923-.911,1.582,1.582,0,0,1,1.253.8,1.9,1.9,0,0,0,1.025.8,1.937,1.937,0,0,0,1.025-.626c0.456-.416.8-0.74,1.025-0.968a10.834,10.834,0,0,1,2.62-2.05,5,5,0,0,1,1.651-.456c0.644-.075,1.082-0.114,1.31-0.114a16.763,16.763,0,0,1,1.708-.171,3.667,3.667,0,0,0,1.538-.342,1.522,1.522,0,0,0,.513-1.424,3,3,0,0,0-1.082-2.733,7.3,7.3,0,0,0-3.018-.911,6.84,6.84,0,0,0-1.31-.114A2.306,2.306,0,0,1,53,34.677a1.087,1.087,0,0,1-.4-1.025,17,17,0,0,0-.285-3.189q-0.286-1.479-1.082-4.214-1.14-3.529-1.651-4.9a7.784,7.784,0,0,0-1.709-2.62,4.135,4.135,0,0,0-3.132-1.253q-2.392,0-2.392,1.595h0ZM40.07,51.192q0,1.14,1.822,2.278a6.256,6.256,0,0,0,3.189,1.139,12.636,12.636,0,0,0,3.132-.683A14.959,14.959,0,0,0,52.143,52.1,3.134,3.134,0,0,0,53.852,49.6q0-2.277-3.189-2.278a25.711,25.711,0,0,0-6.378,1.2q-4.215,1.2-4.214,2.677h0ZM40.64,59.62a3.233,3.233,0,0,0,1.595,2.449,4.957,4.957,0,0,0,2.847,1.2,4.708,4.708,0,0,0,1.993-.513,11.627,11.627,0,0,0,1.993-1.2A27.794,27.794,0,0,1,52.6,59.734a13.267,13.267,0,0,0,1.367-.626,10.547,10.547,0,0,0,1.879-1.2,2.468,2.468,0,0,0,.854-2.05,1.5,1.5,0,0,0-.74-1.367,3.8,3.8,0,0,0-1.993-.456,20.094,20.094,0,0,0-4.385,1.025A46.319,46.319,0,0,0,43.43,57.4q-2.792,1.311-2.79,2.221h0ZM7.61,59.164a3.27,3.27,0,0,0,1.708,2.563,15.151,15.151,0,0,0,3.929,1.936,11.958,11.958,0,0,0,3.588.74c0.456,0,.683-0.416.683-1.253q0-1.935-2.62-3.474a9.49,9.49,0,0,0-4.67-1.538,7.083,7.083,0,0,0-1.708.228,0.939,0.939,0,0,0-.911.8h0Zm3.531,12.3q0,1.938,1.595,1.936a1.008,1.008,0,0,1,1.139,1.139,1.9,1.9,0,0,1-.285,1.025,4.256,4.256,0,0,1-.8.911c-0.342.3-.552,0.495-0.626,0.57a9.853,9.853,0,0,1-.911.74,1.573,1.573,0,0,0-.683,1.31A3.026,3.026,0,0,0,11.6,80.747,2.762,2.762,0,0,0,13.3,81.829a5.394,5.394,0,0,0,3.075-1.253,11.468,11.468,0,0,0,2.9-3.132,6.873,6.873,0,0,0,1.2-3.7,3.516,3.516,0,0,0-2.449-3.417A13.008,13.008,0,0,0,12.963,69.3a1.864,1.864,0,0,0-1.139.683,2.07,2.07,0,0,0-.683,1.481h0ZM37.451,82.4a3.24,3.24,0,0,0,.968,2.278A2.867,2.867,0,0,0,40.526,85.7a2.37,2.37,0,0,0,1.822-.911q0.454-.568,1.879-2.164a24.7,24.7,0,0,1,3.531-3.189,7.478,7.478,0,0,1,4.613-1.595c0.53,0,.8.153,0.8,0.456a7.6,7.6,0,0,1-1.709,4.214,6.317,6.317,0,0,0-.911,1.595A2.928,2.928,0,0,0,51.972,86.5a4.783,4.783,0,0,0,2.79,1.025,17.885,17.885,0,0,0,3.531-1.082,45.4,45.4,0,0,0,4.328-1.765,2.048,2.048,0,0,0,1.253-1.822,1.659,1.659,0,0,0-.8-1.367,3.89,3.89,0,0,0-2.278-.57,2.973,2.973,0,0,1-1.822-.342,4.286,4.286,0,0,1-.456-1.708,13.493,13.493,0,0,0-.8-3.474,3.82,3.82,0,0,0-2.164-2.107q-1.025-.454-5.353-0.456A13.782,13.782,0,0,1,46.79,72.6a3.747,3.747,0,0,1-1.139-1.367,2.293,2.293,0,0,0-1.936-1.253,2.728,2.728,0,0,0-2.164.911q-0.23.342-2.164,5.638A44.232,44.232,0,0,0,37.451,82.4h0ZM3.51,87.752q0,2.05,3.417,3.645A27.432,27.432,0,0,0,13.3,93.561a77.158,77.158,0,0,1,8.485,2.221L26.4,97.319a122.152,122.152,0,0,0,27.278,5.41Q69,104.153,86.654,104.153q4.327,0,4.328-2.62A3.771,3.771,0,0,0,88.931,98a9.577,9.577,0,0,0-5.068-1.025q-3.019.115-3.7,0.114H73.669q-12.984,0-19.476-.285A96.068,96.068,0,0,1,41.836,95.5,145.844,145.844,0,0,1,27.542,92.08q-2.28-.569-9.681-3.417-3.417-1.252-6.606-2.335a16.632,16.632,0,0,0-4.67-1.082,3.609,3.609,0,0,0-1.993.74A2.123,2.123,0,0,0,3.51,87.752h0ZM113.533,38.094a4.166,4.166,0,0,0-2.449.854,2.524,2.524,0,0,0-1.2,2.107,1.516,1.516,0,0,0,.8,1.31,7.345,7.345,0,0,0,2.278.854q1.479,0.342,1.937.456,2.959,0.683,2.961,1.936l0.114,3.872a6.839,6.839,0,0,1-.456,2.734,2.447,2.447,0,0,1-1.708,1.367,31.069,31.069,0,0,0-4.9,1.822,2.78,2.78,0,0,0-1.822,2.506q0,2.507,3.531,2.506a14.539,14.539,0,0,0,2.164-.114,1.192,1.192,0,0,1,.8.057,0.57,0.57,0,0,1,.456.512,0.924,0.924,0,0,1-.456.683,26.484,26.484,0,0,0-4.157,3.929,76.706,76.706,0,0,0-5.467,6.549q-2.451,3.3-2.449,4.556a1.572,1.572,0,0,0,.683,1.31,2.583,2.583,0,0,0,1.595.512,5.666,5.666,0,0,0,3.815-1.424,21.619,21.619,0,0,0,3.36-3.815q0.228-.342,1.2-1.481a2.734,2.734,0,0,1,1.424-1.139c0.228,0,.342.381,0.342,1.139q0,2.05-.228,4.613t-0.342,3.7q-0.23,1.482-.455,3.986a1.385,1.385,0,0,1-.285.911,2.16,2.16,0,0,1-.8.57c-0.342.153-.59,0.267-0.741,0.342a4.739,4.739,0,0,0-1.253.74,1.661,1.661,0,0,0-.455,1.31,2.046,2.046,0,0,0,1.31,1.822,5.511,5.511,0,0,0,2.562.683q5.81,0,6.264-9.453,0.113-2.619.285-4.5a4.677,4.677,0,0,1,.627-2.392,1.205,1.205,0,0,1,1.48-.057,15.043,15.043,0,0,0,1.766.854,5.762,5.762,0,0,0,2.221.4q2.846,0,2.847-1.708a2.306,2.306,0,0,0-.8-1.594,23.17,23.17,0,0,0-2.506-2.05,24.114,24.114,0,0,1-3.7-3.132,4.659,4.659,0,0,1-1.309-3.246q0-.112-0.057-2.335t1.2-2.676a17.633,17.633,0,0,0,4.271-2.847q3.13-2.5,3.132-3.759,0-1.479-2.62-1.481-1.254,0-3.531.228c-0.227.077-.455,0.153-0.683,0.228a2.132,2.132,0,0,1-.683.114q-0.684,0-.684-2.733a4.252,4.252,0,0,1,.627-2.677,3.586,3.586,0,0,1,1.765-1.082,4.53,4.53,0,0,0,1.822-.854,2.655,2.655,0,0,0,.57-1.993q0-1.594-5.41-2.563a51.768,51.768,0,0,0-8.6-.968h0ZM168.2,27.957a26.56,26.56,0,0,1-4.556.342,99.3,99.3,0,0,0-12.586.911q-4.044.683-4.157,1.822-0.114,1.708,2.506,2.506a20.991,20.991,0,0,0,5.239.911,5.559,5.559,0,0,1,2.278.57,1.8,1.8,0,0,1,.8,1.708,2.226,2.226,0,0,1-1.366,1.993,18.539,18.539,0,0,1-3.987,1.424,25.173,25.173,0,0,0-3.815,1.481,2.326,2.326,0,0,0-1.424,1.822q-0.115.683,1.31,1.765a5.533,5.533,0,0,0,2.221,1.2,10.474,10.474,0,0,0,3.644-.911c0.3-.075.815-0.228,1.538-0.456a6.653,6.653,0,0,1,1.993-.342q1.479,0,1.481,2.506v0.456a8.056,8.056,0,0,1-.8,3.588q-0.572.742-2.962,0.626a12.206,12.206,0,0,1-2.278-.569c-0.153-.075-0.4-0.189-0.74-0.342a2.932,2.932,0,0,0-1.2-.228q-2.849,0-4.84,3.645a32.546,32.546,0,0,0-3.076,8.314,42.571,42.571,0,0,0-1.2,7.859,16.21,16.21,0,0,0,.228,4.214,3.267,3.267,0,0,0,1.025,1.879,5.774,5.774,0,0,0,1.937.854,5.2,5.2,0,0,0,1.195.456,4.507,4.507,0,0,1,1.994,1.367,3.113,3.113,0,0,0,1.366,1.253,4.264,4.264,0,0,0,1.937.456,2.063,2.063,0,0,0,1.309-.4c0.342-.265.55-0.436,0.627-0.513a4.158,4.158,0,0,1,2.05-.8,1.1,1.1,0,0,1,1.139.911v0.114a4.155,4.155,0,0,1-1.709,3.246,27.843,27.843,0,0,1-4.783,2.677,22.036,22.036,0,0,0-3.36,1.594,1.687,1.687,0,0,0,.114,3.189,5.877,5.877,0,0,0,2.335.8,2.889,2.889,0,0,0,1.2-.285,6.588,6.588,0,0,1,1.082-.4,10.912,10.912,0,0,1,2.164-.683,0.559,0.559,0,0,1,.569.683V91.4q0,3.075-1.481,3.872a4.589,4.589,0,0,1-1.822.74q-1.254.286-2.733,0.513a20.986,20.986,0,0,0-5.069,1.253,2.865,2.865,0,0,0-1.993,2.505q-0.114,1.026,1.481,1.766a6.725,6.725,0,0,0,2.733.74,5.42,5.42,0,0,0,1.481-.342q1.137-.682,8.884-0.683a75.813,75.813,0,0,0,11.731-1.139l2.62-.569A86.936,86.936,0,0,1,185.856,98a7.954,7.954,0,0,0,2.962-.4q0.91-.4.911-2.107a2.427,2.427,0,0,0-1.139-2.335,8.636,8.636,0,0,0-3.872-.627,47.352,47.352,0,0,0-6.322.456q-3.36.456-4.271,0.569a66.8,66.8,0,0,1-12.756,1.025q-1.14,0-1.139-.8l0.8-2.961a7.6,7.6,0,0,1,1.253-2.734,5.584,5.584,0,0,1,2.221-1.651,20.013,20.013,0,0,0,1.993-.968,8.419,8.419,0,0,0,3.018-2.164,4.969,4.969,0,0,0,1.31-2.961q0-1.708-1.025-1.708a8.121,8.121,0,0,0-3.417,1.481,7.707,7.707,0,0,1-2.733.8q-0.913,0-.8-0.8a5.44,5.44,0,0,1,1.366-2.563,18.432,18.432,0,0,1,3.075-2.449,56.3,56.3,0,0,0,4.9-3.986,15.634,15.634,0,0,0,3.3-4.954,19.976,19.976,0,0,0,1.481-8.257q0-3.759-2.164-4.9a19.029,19.029,0,0,0-6.606-1.595c-0.228,0-.646-0.018-1.253-0.057a2.2,2.2,0,0,1-1.481-.626q-0.342-.227-0.342-2.164l0.114-3.417a2.365,2.365,0,0,1,1.139-2.05,9.977,9.977,0,0,1,3.076-.911,9.747,9.747,0,0,0,3.246-.968q1.08-.625,1.082-2.676t-3.645-2.05a16.157,16.157,0,0,0-3.759.569,3.311,3.311,0,0,1-1.366-.057,0.749,0.749,0,0,1-.684-0.74c0-.228.018-0.55,0.057-0.968a3,3,0,0,1,.285-1.082,1.162,1.162,0,0,1,1.139-.456,8.892,8.892,0,0,0,3.815-.456q1.308-.569,1.31-1.253a6.927,6.927,0,0,0-.512-3.3,1.563,1.563,0,0,0-2.221-.8h0Zm3.189,30.068a2.311,2.311,0,0,1,.455,1.481l-0.114,1.025V61.1q0,2.05-.569,2.392-0.456.342-.456-2.392a4.808,4.808,0,0,0-.854-2.961A2.656,2.656,0,0,0,167.633,57h0.228c0.151,0,.416.02,0.8,0.057s0.854,0.114,1.424.228a2.155,2.155,0,0,1,1.31.74h0ZM152.6,57.57c0.3-.075.835-0.171,1.595-0.285a14.59,14.59,0,0,1,2.164-.171q2.618,0,2.619,1.822a1.4,1.4,0,0,1-.683,1.082,9.839,9.839,0,0,1-2.05,1.082q-1.368.571-1.709,0.683a4.662,4.662,0,0,0-2.278,1.765,4.532,4.532,0,0,0-.8,2.563,3.223,3.223,0,0,0,.513,1.879,1.742,1.742,0,0,0,1.537.74,6.769,6.769,0,0,0,1.139-.228,9.572,9.572,0,0,1,2.961-.8,0.638,0.638,0,0,1,.627.342,2.878,2.878,0,0,1,.057,1.367Q158.179,72.6,151.916,75a1.432,1.432,0,0,1-1.595-.456,6.022,6.022,0,0,1-1.538-2.392,8.92,8.92,0,0,1-.512-3.758,26.139,26.139,0,0,1,1.367-6.663q1.251-3.929,2.961-4.157h0Zm15.376,8.087h0.854q0.739,0,.74.342a4.789,4.789,0,0,1-1.423,2.449,4.392,4.392,0,0,1-2.563,1.765,1.362,1.362,0,0,1-1.367-1.367V68.618A2.7,2.7,0,0,1,165.3,66.4a3.737,3.737,0,0,1,2.677-.74h0Zm75.74-28.36a4.833,4.833,0,0,0,.684,2.278,4.71,4.71,0,0,1,.683,1.709q0,0.8-4.613,2.506A24.305,24.305,0,0,1,234.6,45.5a9.61,9.61,0,0,1-2.278-.456,6.817,6.817,0,0,0-2.62-.569q-4.783,0-8.428,4.328a43.536,43.536,0,0,0-3.189,3.872l-1.481,1.936a45.228,45.228,0,0,0-4.385,8.542q-2.792,6.492-2.79,8.656a2.422,2.422,0,0,0,1.139,1.708,3.637,3.637,0,0,0,2.278.911q1.137,0.115,2.961-1.595a5.343,5.343,0,0,0,1.936-2.847,7.286,7.286,0,0,0-.455-2.05,4.668,4.668,0,0,1-.342-2.05q0-1.025,2.506-4.385a72.573,72.573,0,0,1,5.467-6.492q2.959-3.131,4.1-3.474a6.448,6.448,0,0,1,2.05-.342,14.061,14.061,0,0,0,3.7-.683q2.333-.683,4.84-1.594,5.809-2.05,10.137-3.189a34.374,34.374,0,0,1,8.77-1.139q3.87,0,5.752,1.367t1.879,4.67a28.658,28.658,0,0,1-.684,5.011,18,18,0,0,0-.8,5.011A4.336,4.336,0,0,0,266.5,63.72q1.024,0.115,2.107-2.449a43.59,43.59,0,0,0,1.936-5.809,21.564,21.564,0,0,0,.854-4.385,7.771,7.771,0,0,0-.228-2.563c-0.228-.948-0.381-1.575-0.455-1.879l-0.57-1.822a6.769,6.769,0,0,0-3.815-3.7,14.59,14.59,0,0,0-5.41-1.538q-1.368,0-5.695.456-1.026.115-2.221,0.228t-2.221.114q-1.024,0-1.025-.683a3.5,3.5,0,0,1,.455-1.367,6.532,6.532,0,0,0,.456-3.075V33.082a24.6,24.6,0,0,1,.228-3.132q0.227-1.764.342-2.563a30.459,30.459,0,0,0,.569-5.467q0-1.821-2.164-1.822a6.448,6.448,0,0,0-2.05.342q-1.367.8-2.563,7.232a72.146,72.146,0,0,0-1.31,9.624h0Zm-6.947,25.171a2.274,2.274,0,0,0,.683,1.765,2.589,2.589,0,0,0,1.822.626,13.191,13.191,0,0,0,3.3-.683,10.847,10.847,0,0,1,3.076-.683,3.012,3.012,0,0,1,2.391.911,3.682,3.682,0,0,1,.8,2.506q-0.115,2.05-2.62,4.784a6.8,6.8,0,0,1-.854,1.025,2.223,2.223,0,0,0-.74,1.367,5.614,5.614,0,0,0,.683,2.107,6.417,6.417,0,0,1,.683,2.79,4.935,4.935,0,0,1-.683,3.075,8.575,8.575,0,0,1-2.563.911q-2.45.683-3.7,1.025-7.518,2.165-12.3,3.7t-5.581,2.563a2.688,2.688,0,0,0-.8,1.709,2.524,2.524,0,0,0,1.594,2.221,5.89,5.89,0,0,0,2.278.854q1.367,0,5.923-2.164a30.335,30.335,0,0,1,7.859-3.075q1.025-.227,2.79-0.74a11.108,11.108,0,0,1,3.018-.513q1.252,0,1.253.911a25.936,25.936,0,0,1-.968,5.41Q243.26,98,242.576,98a9.406,9.406,0,0,1-2.5-1.025,13.8,13.8,0,0,0-4.442-1.595,5.8,5.8,0,0,0-2.05.342,1.412,1.412,0,0,0-1.025,1.139q0,1.025,4.328,3.929t5.694,3.246a14.147,14.147,0,0,0,1.823.228,3.5,3.5,0,0,0,2.676-1.025,11.919,11.919,0,0,0,1.993-3.531,13.275,13.275,0,0,0,.684-3.759,29.873,29.873,0,0,1,.854-4.613,8.1,8.1,0,0,1,1.879-3.246,7.389,7.389,0,0,1,3.531-1.481q2.619-.569,6.834-1.139a59.422,59.422,0,0,0,6.606-1.253,22.881,22.881,0,0,1,5.808-.569l3.417,0.114q12.3,0.342,16.06,1.708,0.453,0.115,1.537.513a5.535,5.535,0,0,0,1.879.4,2.592,2.592,0,0,0,2.108-1.082,3.694,3.694,0,0,0,.854-2.335q0.111-2.277-6.208-3.246a109.009,109.009,0,0,0-12.243-1.2q-1.824-.112-5.353-0.114a60.97,60.97,0,0,0-13.44,1.367,41.516,41.516,0,0,1-6.037.8c-0.455,0-1.082.039-1.879,0.114s-1.463.153-1.993,0.228q-1.025.115-1.651-1.538a9.37,9.37,0,0,1-.627-3.36,1.8,1.8,0,0,1,.228-1.139,12.535,12.535,0,0,0,2.563-5.239,21.96,21.96,0,0,0,.854-5.011q0-3.417-4.157-4.556a33.784,33.784,0,0,0-8.941-1.139,8.185,8.185,0,0,0-3.816.854,2.824,2.824,0,0,0-1.651,2.677h0Zm75.057-25.513a2.788,2.788,0,0,0,1.424,2.335,5.1,5.1,0,0,0,2.9.968,10.99,10.99,0,0,0,2.278-.342,10.856,10.856,0,0,1,2.164-.342,0.872,0.872,0,0,1,.854.342,2.741,2.741,0,0,1,.171,1.139,40.171,40.171,0,0,1-.228,4.043q-0.23,2.221-.8,2.563a11.951,11.951,0,0,1-1.765.968,10.71,10.71,0,0,0-2.563,1.765,4.234,4.234,0,0,0-1.253,3.3q0,1.708,1.367,1.708a6.356,6.356,0,0,0,1.879-.4,16.792,16.792,0,0,1,1.765-.513c0.379-.075.57,0,0.57,0.228a8.84,8.84,0,0,1-.8,3.189q-0.8,1.938-2.278,4.9l-1.367,2.847a6.765,6.765,0,0,0-.228,1.139,1.247,1.247,0,0,0,.8,1.253,4,4,0,0,0,1.823.285q1.024-.056,1.253-0.057,2.049,0,4.157-4.442a32.536,32.536,0,0,0,2.676-7.4,7.677,7.677,0,0,1,.741-2.335,1.569,1.569,0,0,1,1.423-.968q1.137,0,1.139,3.075,0,1.367-.227,3.872c-0.154,1.671-.228,2.733-0.228,3.189a16.545,16.545,0,0,0,.683,5.068,2.905,2.905,0,0,0,3.075,2.107q2.163,0,2.791-3.3a67.965,67.965,0,0,0,.854-9.453,43.223,43.223,0,0,1,.683-7.631,7.138,7.138,0,0,1,1.424-.513,7.122,7.122,0,0,0,2.563-1.481q1.251-1.081,1.253-3.929a1.782,1.782,0,0,0-2.051-2.164,7.347,7.347,0,0,0-1.651.171,6.338,6.338,0,0,1-1.424.171q-0.912,0-.911-0.683,0-4.784.8-6.15a2.5,2.5,0,0,1,.968-0.911,4.263,4.263,0,0,1,1.2-.456,3.875,3.875,0,0,0,1.6-.683,1.936,1.936,0,0,0,.569-1.595,2.837,2.837,0,0,0-.911-2.335,3.682,3.682,0,0,0-2.392-.74,11.208,11.208,0,0,0-3.758,1.139q-0.684.456-8.542,2.335t-9.568,2.107q-3.873.456-4.328,1.139a2,2,0,0,0-.569,1.481h0Zm16.4,10.137c-0.532,0-.8-0.189-0.8-0.569a27.751,27.751,0,0,1,.683-4.954q0.684-3.358,1.253-3.7,1.479-.8,1.48,1.367v3.645q0,4.215-2.619,4.214h0Zm36.788-12.415a10.349,10.349,0,0,0,.342,2.733,28.959,28.959,0,0,1,.8,7.859v3.872a42.966,42.966,0,0,1-1.025,10.706l-0.114,1.367a1.623,1.623,0,0,0,1.025,1.367,3.839,3.839,0,0,0,1.823.569q1.593,0,2.79-4.157a56.057,56.057,0,0,0,1.765-9.339q0.569-5.181.57-7.46a17.546,17.546,0,0,0-1.082-6.891q-1.084-2.448-4.841-2.449-2.049,0-2.05,1.822h0Zm-9.909,21.412q1.935,0,2.848-5.353a55.373,55.373,0,0,0,.911-9q0-3.985-1.367-3.986a4.437,4.437,0,0,0-4.67,3.474,30.355,30.355,0,0,0-1.025,8.485,14.251,14.251,0,0,0,.627,4.5,2.562,2.562,0,0,0,2.676,1.879h0ZM335.06,82.057a3.18,3.18,0,0,0,1.423,1.993,4.165,4.165,0,0,0,2.107,1.2,6.7,6.7,0,0,0,2.905-.569,21,21,0,0,0,2.107-1.139q0.911-.569.911,0.569a18.572,18.572,0,0,1-1.025,4.9,38.4,38.4,0,0,1-2.449,6.093q-1.425,2.792-2.9,3.36a11.383,11.383,0,0,0-2.9,1.367q-1.651,1.025-1.651,1.936a3.027,3.027,0,0,0,1.367,2.335,4.4,4.4,0,0,0,2.733,1.082,32.721,32.721,0,0,0,5.467-.683q9.111-1.368,13.895-2.62a65.276,65.276,0,0,0,11.732-4.67,79.7,79.7,0,0,1,11.1-4.214A36.934,36.934,0,0,1,390.3,91.283l3.3,0.114q2.733,0,2.733-2.278,0-3.187-9.111-3.189a30.1,30.1,0,0,0-9.112,1.481,116.8,116.8,0,0,0-11.389,4.442q-6.381,2.733-10.536,4.043a26.329,26.329,0,0,1-7.916,1.31q-0.683,0,.4-2.278a33.662,33.662,0,0,0,1.879-5.011,23.363,23.363,0,0,0,.8-6.492,8.876,8.876,0,0,0-.114-1.31,9.227,9.227,0,0,1-.114-1.424q0-1.367.683-1.481,6.946-2.734,6.948-4.784t-1.709-2.05a18.812,18.812,0,0,0-3.644.8l-2.164.683q-0.342.115-.171-0.74a2.393,2.393,0,0,0-.114-1.481,1.663,1.663,0,0,0-1.651-.626,4.925,4.925,0,0,0-2.677.57,3.013,3.013,0,0,0-1.139,2.05,18.9,18.9,0,0,1-.512,2.164,4.4,4.4,0,0,1-1.652,1.2,22.9,22.9,0,0,1-2.107,1.082q-6.15,2.733-6.15,3.986h0ZM70.822,171.9a6.312,6.312,0,0,0,.513,2.392,1.953,1.953,0,0,0,1.993,1.253,4.025,4.025,0,0,0,1.481-.228q0.569-.227,1.139-0.513a9.955,9.955,0,0,1,1.253-.512,10.092,10.092,0,0,1,2.733-1.253,83.265,83.265,0,0,1,9.282-3.246,31.541,31.541,0,0,1,8.485-1.424,3.085,3.085,0,0,1,2.107.456,3.956,3.956,0,0,1,.627,1.822A3.567,3.567,0,0,0,101,172.41a2.141,2.141,0,0,0,1.823.627,1.978,1.978,0,0,0,1.993-1.538,9.214,9.214,0,0,0,.512-2.9,4.065,4.065,0,0,0-1.423-3.531,6.851,6.851,0,0,0-4.044-1.025,56.411,56.411,0,0,0-7.745.228,65.1,65.1,0,0,0-7.289,1.481,70.569,70.569,0,0,0-8.144,2.847q-5.753,2.28-5.866,3.3h0Zm7.631,11.162a1.779,1.779,0,0,0,.569,1.48,5.341,5.341,0,0,0,1.481.8q0.91,0.34.8,0.683-0.8,1.482-1.253,2.506t-0.8,1.708a7.786,7.786,0,0,1-2.62,3.075q-1.367.8-5.467,1.025a25.223,25.223,0,0,0-5.638,1.481q-3.929,1.367-4.043,2.392,0,0.912,1.595,1.879a9.3,9.3,0,0,0,2.62,1.2,7.716,7.716,0,0,0,2.335-.342q1.081-.34,1.424-0.455a13.537,13.537,0,0,1,3.531-.57,10.085,10.085,0,0,1-1.481,3.531q-1.255,2.05-3.759,5.581l-1.708,2.506q-1.823,2.279-2.847,3.872a85.96,85.96,0,0,1-13.44,16.857l-0.342.455q-0.23.23-1.082,1.025a2.15,2.15,0,0,0-.854,1.367q0,0.572,1.595,1.139a7.9,7.9,0,0,0,2.392.569q3.3,0.115,5.353-3.189,1.252-2.049,5.695-8.086l2.164-2.848a107.905,107.905,0,0,0,8.087-10.82q0.112-.111,2.677-3.587t4.613-5.866q0.8-.91,1.709-2.107a7.194,7.194,0,0,1,1.708-1.709,7.753,7.753,0,0,1,3.075-.74q1.367-.227,11.617-2.563t10.706-2.562q0.454-.227.456-1.936a2,2,0,0,0-1.025-2.05,8.348,8.348,0,0,0-3.189-.456,36.614,36.614,0,0,0-10.365,1.936q-1.025.229-3.872,1.025a29.926,29.926,0,0,1-5.353,1.025q0.227-.453.854-2.05a20.141,20.141,0,0,1,1.651-3.246,3.635,3.635,0,0,1,2.506-1.879,10.952,10.952,0,0,0,3.759-1.253,2.916,2.916,0,0,0,1.708-1.822,1.708,1.708,0,0,0-1.481-1.595,2.479,2.479,0,0,1-.8-0.342,0.765,0.765,0,0,1-.342-0.683q0-1.137,1.822-3.531a16.144,16.144,0,0,0,1.253-2.278,5.4,5.4,0,0,0,.57-2.164,1.571,1.571,0,0,0-.285-1.423,5.824,5.824,0,0,0-2.449-.285,4.684,4.684,0,0,0-3.7,1.481,21.916,21.916,0,0,0-2.79,4.328l-1.253,2.164a24.92,24.92,0,0,1-1.31,2.221,1.392,1.392,0,0,1-1.082.74,8.817,8.817,0,0,0-4.214.626,2.137,2.137,0,0,0-1.481,1.766h0Zm-8.2,52.05a9.61,9.61,0,0,0,1.025,5.3q1.137,1.879,4.67,1.879a9.082,9.082,0,0,1,2.278.684,5.259,5.259,0,0,0,2.62,1.025,15.713,15.713,0,0,0,5.068-.4q2.675-.627,3.474-0.74a36.816,36.816,0,0,1,5.922-1.025l-1.594,2.164a7.068,7.068,0,0,0-1.367,1.822v0.114a7.568,7.568,0,0,0,1.993,1.253,9.06,9.06,0,0,0,2.107.8q2.733,0.113,5.467-7.289,3.645-.569,5.126-0.8,0.8-.113,3.872-0.57a39.26,39.26,0,0,1,5.7-.455,17.613,17.613,0,0,1,2.278.113,7.58,7.58,0,0,0,4.67-1.366,2.915,2.915,0,0,0,1.48-2.392,1.994,1.994,0,0,0-.968-1.766,4.724,4.724,0,0,0-2.107-.74,52.763,52.763,0,0,0-8.884.57,64.045,64.045,0,0,1-8.884.455q-0.456,0-.455-1.708a5.509,5.509,0,0,1,.8-2.563,13.076,13.076,0,0,1,1.822-2.221,3.109,3.109,0,0,0,1.139-1.936q0-.911-1.708-1.936a9.2,9.2,0,0,1-1.025-1.139q-1.026-1.252-1.025-4.784v-0.683a7.766,7.766,0,0,0-2.563-5.581,10.471,10.471,0,0,0-5.068-2.278,57.939,57.939,0,0,0-7.4-.569q0.112-.228.74-1.139a2.961,2.961,0,0,0,.626-1.595q0-1.593-2.392-1.594H87a6.791,6.791,0,0,0-5.011,1.708,16.075,16.075,0,0,0-3.075,4.67q-1.025,2.391-2.392,4.9-3.075,6.492-4.5,10.422a33.881,33.881,0,0,0-1.765,9.4h0Zm26.993-17.768a1.1,1.1,0,0,1-.854.684,5.172,5.172,0,0,1-1.538.227,47.765,47.765,0,0,0-6.435,1.424q-4.386,1.2-5.41,2.221a2.118,2.118,0,0,0,1.424,1.765,5.5,5.5,0,0,0,2.449.741,21.888,21.888,0,0,0,5.695-.8,17.856,17.856,0,0,1,5.239-.8,0.3,0.3,0,0,1,.342.342,3.133,3.133,0,0,1-2.05,2.449,34.689,34.689,0,0,1-5.353,1.993q-5.24,1.254-5.239,2.619-0.115,1.482,2.107,2.221a16.293,16.293,0,0,0,4.271.855,7.023,7.023,0,0,0,2.62-.684c0.3-.074.626-0.171,0.968-0.284a3.06,3.06,0,0,1,.968-0.171l0.456,0.114a0.659,0.659,0,0,1,.8.683,1.229,1.229,0,0,1-.342.911,3.972,3.972,0,0,1-1.025.684,71.986,71.986,0,0,1-8.314,2.277q-7.859,1.938-8.542,1.937a2.781,2.781,0,0,1-1.993-.741,3.132,3.132,0,0,1-.513-1.993,39.692,39.692,0,0,1,1.936-9.966q1.935-6.663,4.1-8.827a13.439,13.439,0,0,1,5.068-2.676,14.661,14.661,0,0,1,5.752-.854q0.568,0,1.993,1.537a4.674,4.674,0,0,1,1.424,2.107h0Zm63.1-28.587a1.28,1.28,0,0,0,.626,1.309,4.725,4.725,0,0,0,1.88.285,5.213,5.213,0,0,1,1.879.4q0.513,0.285.285,1.537a60.513,60.513,0,0,0-1.481,11.732,6.515,6.515,0,0,0,1.2,4.271,3.138,3.138,0,0,0,3.815,1.195,63.992,63.992,0,0,0-2.9,6.777,17.762,17.762,0,0,0-.968,5.866q0,1.482,1.993,3.075t3.36,1.367a2.648,2.648,0,0,0,1.538-.854,12.588,12.588,0,0,0,1.2-1.88q1.138-2.5,2.734-2.847,4.212-1.137,7.289-2.221t3.075-2.563q0-.91-1.48-1.708a5.365,5.365,0,0,0-2.62-.57q-3.189,0-10.136,3.3a10.044,10.044,0,0,0,.569-2.5,26.556,26.556,0,0,1,1.025-4.1,3.631,3.631,0,0,1,1.708-2.164,20.379,20.379,0,0,0,4.044-2.847,4.82,4.82,0,0,0,1.423-3.645,3.1,3.1,0,0,0-.512-1.708,1.61,1.61,0,0,0-1.424-.8q-1.14,0-3.7,1.765a18,18,0,0,1-2.791,1.765q-1.025,0-1.025-2.164a40,40,0,0,1,1.709-11.047,3.229,3.229,0,0,1,1.082-1.595q0.739-.568,2.221-1.481a13.516,13.516,0,0,0,2.562-1.879,3.151,3.151,0,0,0,.854-2.335,1.108,1.108,0,0,0-1.252-1.253,7.374,7.374,0,0,0-1.139.114,10.546,10.546,0,0,1-1.709.114,0.937,0.937,0,0,1-.854-0.455,5,5,0,0,1-.513-1.481,6.476,6.476,0,0,0-.683-1.765,1.4,1.4,0,0,0-1.253-.513,3.633,3.633,0,0,0-2.449.74,5.484,5.484,0,0,0-1.423,2.392q-0.572,1.653-.911,2.563a2.548,2.548,0,0,1-1.139,1.48,15.8,15.8,0,0,1-2.392,1.026A8.6,8.6,0,0,0,161.2,186.7a2.47,2.47,0,0,0-.854,2.051h0Zm39.408,0.569a2.724,2.724,0,0,0,1.366,2.449,15.2,15.2,0,0,0,3.645,1.537q2.277,0.572,2.278,1.139,0,1.14-1.879,3.019t-3.018,1.879l-2.62-.114a1.907,1.907,0,0,0-2.278,2.278,25.175,25.175,0,0,0,.911,6.947,16.226,16.226,0,0,0,2.848,5.524q1.935,2.451,4.9,5.524a7.916,7.916,0,0,0,3.873,2.278,41.106,41.106,0,0,0,10.706,1.139,43.645,43.645,0,0,0,9.225-1.253l3.987-.683q0.795-.112,2.448-0.228a13.8,13.8,0,0,0,3.132-.569,4,4,0,0,0,2.278-1.709q0.228-.453.741-1.765a6.315,6.315,0,0,0,.512-2.221,1.318,1.318,0,0,0-1.594-1.367,5.611,5.611,0,0,0-2.962.911,34.56,34.56,0,0,1-8.2,1.709,82.185,82.185,0,0,1-9.453.683q-15.035,0-15.035-9.8a2.266,2.266,0,0,1,.57-1.481,12.187,12.187,0,0,1,1.708-1.594,21.424,21.424,0,0,0,3.93-4.613,12.615,12.615,0,0,0,1.423-6.549,3.589,3.589,0,0,0-2.676-3.588,17.523,17.523,0,0,0-5.98-.968q-4.783,0-4.783,1.481h0Zm-49.317,42.027a4.013,4.013,0,0,0,.854,2.563,3.1,3.1,0,0,0,3.873.683q0.624-.4.854-0.512a7.853,7.853,0,0,1,4.442-1.367,32.372,32.372,0,0,1,7.175.684,63.342,63.342,0,0,1,7.062,2.164q1.137,0.34,2.619.854t3.3,1.082q12.87,3.873,22.552,3.872a131.479,131.479,0,0,0,23.69-2.733,56.21,56.21,0,0,1,9.795-1.025,65.78,65.78,0,0,0,8.428-1.025q2.5-.569,2.506-2.392a1.875,1.875,0,0,0-1.082-1.936,7.284,7.284,0,0,0-2.791-.456,105.239,105.239,0,0,0-14.35.8,22.632,22.632,0,0,1-4.9.684,20.507,20.507,0,0,0-5.239.8,31.131,31.131,0,0,1-3.075.569q-1.14.115-3.987,0.57-0.682.114-3.246,0.455a36.667,36.667,0,0,1-4.84.342A47.744,47.744,0,0,1,194.057,235q-4.783-1.025-12.187-3.075l-6.606-1.822a73.817,73.817,0,0,0-14.123-3.3,5.2,5.2,0,0,1-1.993-.513,1.7,1.7,0,0,1-.74-1.651,15.905,15.905,0,0,1,1.139-4.556,11.194,11.194,0,0,0,1.025-3.645,0.96,0.96,0,0,0-1.025-1.139q-2.506,0-4.727,2.62a8.023,8.023,0,0,0-2.221,5.125,10.411,10.411,0,0,1-.57,3.3q-0.229.684-.911,2.278a7.189,7.189,0,0,0-.683,2.733h0ZM295.88,167.57q0,0.456.113,2.676a8.379,8.379,0,0,1-.341,3.36,1.524,1.524,0,0,1-1.31.684,22.4,22.4,0,0,1-3.417.285c-1.481.039-2.411,0.056-2.79,0.056a62.02,62.02,0,0,0-7.859.513q-2.393.4-2.392,1.993a3.611,3.611,0,0,0,1.481,2.9,4.834,4.834,0,0,0,3.075,1.2q1.709,0,3.7-.17t2.9-.171l2.392-.114q2.733-.227,3.986-0.228a1.961,1.961,0,0,1,1.993,1.822,42.057,42.057,0,0,1,.4,7.29v10.022a50.554,50.554,0,0,1-2.62,15.6,13.12,13.12,0,0,1-3.417,5.581q-3.3,2.849-8.485,8.2t-5.182,7.061a2.72,2.72,0,0,0,.683,1.822,2.047,2.047,0,0,0,1.595.8,2.7,2.7,0,0,0,1.537-.627,17.826,17.826,0,0,0,2.164-1.993q1.308-1.367,2.107-2.05a41.843,41.843,0,0,1,4.841-4.157q2.562-1.879,2.221-.057-0.229,1.024-.854,4.1a26.913,26.913,0,0,0-.627,5.239q0,4.554,3.417,4.556a2.91,2.91,0,0,0,3.189-2.335,31.186,31.186,0,0,0,.57-6.89q0-2.619,1.139-3.3a7.976,7.976,0,0,1,3.872-.684,89.6,89.6,0,0,1,12.586.968,45.877,45.877,0,0,1,11.332,2.905,22.435,22.435,0,0,0,8.656,1.366q6.72,0,6.72-3.075a2.114,2.114,0,0,0-2.392-2.392,38.715,38.715,0,0,1-6.15-1.252q-10.481-2.163-17.426-3.36a80.405,80.405,0,0,0-13.668-1.2,5.411,5.411,0,0,1-2.562-.57,1.453,1.453,0,0,1-.854-1.708L301.574,217q1.137-4.327,1.709-7.062,0.112-.795,2.107-2.847a17.271,17.271,0,0,1,3.36-2.848q0.683,0,4.1,2.506,4.1,2.622,6.663,4.1a8.915,8.915,0,0,0,3.929,1.481q1.366,0,1.367-1.709a7.179,7.179,0,0,0-.911-3.246,8.014,8.014,0,0,0-2.278-2.79q-6.834-4.9-9.112-6.72a19.938,19.938,0,0,1,.911-1.822,24.881,24.881,0,0,0,1.253-2.677,7.489,7.489,0,0,0,.57-2.79q0-2.733-3.075-2.734a2.8,2.8,0,0,0-1.937.855,12.034,12.034,0,0,0-1.936,2.562l-1.367,1.936q-1.938,2.734-2.847,3.759-0.342-2.393-.342-12.187a10.165,10.165,0,0,1,.684-4.385,3.292,3.292,0,0,1,1.879-1.708,23.08,23.08,0,0,1,4.043-.741,6.2,6.2,0,0,0,3.3-1.195q0.911-.855.911-3.7a2.322,2.322,0,0,0-.911-1.879,3.682,3.682,0,0,0-2.392-.741q-1.254,0-5.694,1.823a11.182,11.182,0,0,1-2.278.8q-0.342,0-.342-1.822a9.08,9.08,0,0,0-.342-3.076c-0.153-.455-0.341-1.005-0.569-1.651a6.2,6.2,0,0,0-.854-1.652,2.221,2.221,0,0,0-1.88-.683,3.443,3.443,0,0,0-2.334.968,3.141,3.141,0,0,0-1.082,2.449h0Zm-28.474,44.305a2.811,2.811,0,0,0,1.2,2.221,3.741,3.741,0,0,0,2.334.968,4.914,4.914,0,0,0,2.392-.8,18.386,18.386,0,0,0,2.905-2.164q1.537-1.367,2.107-1.822,0.341-.342,1.252-1.082a2.839,2.839,0,0,1,1.253-.741,1.32,1.32,0,0,1,.741.285,8.529,8.529,0,0,1,.968.854A36,36,0,0,0,287,212.73a8.662,8.662,0,0,0,4.442,1.2,3.391,3.391,0,0,0,1.708-.341,1.907,1.907,0,0,0,.57-1.709,3.015,3.015,0,0,0-.912-1.936,32.244,32.244,0,0,0-3.075-2.847q-0.342-.342-1.424-1.367a22.765,22.765,0,0,1-2.05-2.221,4.142,4.142,0,0,1-.968-2.677,5.287,5.287,0,0,1,.684-2.164l0.8-1.594q0.227-.454.8-1.709t1.082-2.733a8.99,8.99,0,0,0,.513-2.961,2.171,2.171,0,0,0-.627-1.766,3.141,3.141,0,0,0-1.993-.512q-2.05,0-2.676.8a6.19,6.19,0,0,0-.969,2.62,15.231,15.231,0,0,1-3.132,6.15q-2.562,3.3-7,8.087-5.355,5.582-5.353,6.833h0ZM114.33,352.855a15.837,15.837,0,0,0,.456,5.923q0.683,1.822,4.1,1.822a2.17,2.17,0,0,0,2.164-1.2,16.937,16.937,0,0,0,1.025-4.271,19.087,19.087,0,0,1,2.506-7.8q1.935-3.13,6.833-3.132a19.126,19.126,0,0,1,3.987.57,2.414,2.414,0,0,1,1.936,2.5v0.342a7.5,7.5,0,0,1-1.652,4.9,23.121,23.121,0,0,1-4.5,3.645,2.163,2.163,0,0,1-.57.4,2.694,2.694,0,0,0-.683.512,7.583,7.583,0,0,0-2.05,1.595,2.8,2.8,0,0,0,1.139,2.563,5.249,5.249,0,0,0,3.3.968,55.374,55.374,0,0,0,9.681-1.538,93.549,93.549,0,0,0,12.585-3.588q5.523-2.049,5.182-3.644a1.5,1.5,0,0,0-1.48-1.367,8.213,8.213,0,0,0-3.132.911q-2,.913-3.019,1.253a17.053,17.053,0,0,1-7.175,1.025,1.256,1.256,0,0,1-.57-0.114,10.864,10.864,0,0,1-2.164-.455,15.788,15.788,0,0,1,.684-3.645l0.569-3.417a13.48,13.48,0,0,0-.455-5.3,5.017,5.017,0,0,0-2.734-2.848,16.864,16.864,0,0,0-6.378-1.082h-3.075a25.905,25.905,0,0,1-3.645-.17c-0.683-.114-1.025-0.36-1.025-0.741l0.114-2.847a63.3,63.3,0,0,0,.8-6.492q0.112-1.137.114-2.734a1.841,1.841,0,0,0-.512-1.651,7.3,7.3,0,0,0-2.677-.285q-1.938,0-2.392.8a10.591,10.591,0,0,0-1.366,4.442,65.067,65.067,0,0,1-.912,7.631,24.272,24.272,0,0,1-1.594,6.265q-0.23.57-1.082,2.277a31.884,31.884,0,0,0-1.538,3.645,15.127,15.127,0,0,0-.8,4.328h0ZM79.706,320.623l0.342,1.48a20.81,20.81,0,0,1,.114,2.734,79.819,79.819,0,0,1-.626,9.339q-0.627,5.241-1.424,6.834a3.845,3.845,0,0,1-1.879,1.6,45.205,45.205,0,0,1-4.385,1.708,39.111,39.111,0,0,0-5.467,2.05q-1.823.913-1.822,2.278,0,1.024,1.709,1.993a6.871,6.871,0,0,0,3.417.968,6.023,6.023,0,0,0,2.961-.911,6.523,6.523,0,0,1,3.417-1.139q1.479,0,1.822,2.62,0.342,2.962,3.986,7.175a16.825,16.825,0,0,1,1.2,1.709,2.416,2.416,0,0,1,.4,1.139,15.486,15.486,0,0,1-1.481,5.125q-1.481,3.531-2.506,4.214a3.991,3.991,0,0,1-2.164.456H76.289q-2.165.57-2.164,1.594V373.7a3.628,3.628,0,0,0,2.164,2.791,9.545,9.545,0,0,0,4.1.854l1.594-.114a5.931,5.931,0,0,0,3.986-2.449,41.562,41.562,0,0,0,3.531-5.866c0.151-.3.342-0.74,0.569-1.309a5.592,5.592,0,0,1,.8-1.424,0.963,0.963,0,0,1,1.253-.228,13.244,13.244,0,0,0,5.125,1.367,3.823,3.823,0,0,0,2.392-.627,2,2,0,0,0,.8-1.651,3.031,3.031,0,0,0-.342-1.367,10.013,10.013,0,0,0-3.474-3.018q-2.451-1.423-2.676-1.538a2.42,2.42,0,0,1-1.139-1.708,41.176,41.176,0,0,1,.911-4.556,1.743,1.743,0,0,0,.228-0.683q1.821-5.012,3.3-6.037,0.91-.569,2.734-1.48a29.655,29.655,0,0,0,4.556-2.962,4.116,4.116,0,0,0,1.481-3.3,1.257,1.257,0,0,0-.4-1.082,2.08,2.08,0,0,0-1.2-.284l-1.708.114a7.528,7.528,0,0,0-1.823.455,8.685,8.685,0,0,1-1.936.57l-0.342-.342a12.456,12.456,0,0,1-.114-1.936v-2.05a13.715,13.715,0,0,0,.114-2.05v-0.8a2.955,2.955,0,0,0-.683-1.651,2.233,2.233,0,0,0-1.481-.4h-0.8l-1.253.342-0.8.228a9.006,9.006,0,0,0-1.367,2.676q-0.683,1.88-.911,2.677a25.51,25.51,0,0,1-1.367,4.1,2.343,2.343,0,0,1-1.822,1.594H87.906a4.677,4.677,0,0,1-1.424-.17,0.97,0.97,0,0,1-.626-0.855,16.272,16.272,0,0,1,.114-3.189,2.136,2.136,0,0,1,.114-0.683,1.9,1.9,0,0,0,.114-0.57l0.114-3.3,0.114-2.392q0.227-3.187.228-4.9a34.913,34.913,0,0,0-.456-5.922,3.34,3.34,0,0,0-.968-2.107,3.378,3.378,0,0,0-2.221-.627q-3.759,0-3.758,2.392a12.838,12.838,0,0,0,.456,2.392h0ZM86.2,356.728a9.376,9.376,0,0,1-1.082-3.588q-0.513-2.9-.626-3.7a6.35,6.35,0,0,1-.114-1.253,1.5,1.5,0,0,1,.456-1.195,3.945,3.945,0,0,1,1.822-.627,5.257,5.257,0,0,1,1.367-.114,2.145,2.145,0,0,1,1.139.228,29.563,29.563,0,0,1-.968,5.923q-0.969,4.1-1.993,4.328h0Zm125.627-43.281q0,4.1,20.273,4.1h4.67q2.96,0,3.986,1.708a1.65,1.65,0,0,0,1.367.8q1.252,0,2.107-2.05a9.309,9.309,0,0,0,.854-3.417q0-3.187-15.831-3.189l-11.048.114a21.585,21.585,0,0,0-4.043.456q-2.337.456-2.335,1.48h0Zm-12.984,1.823h-0.228q-2.166.23-8.2,6.321a157.661,157.661,0,0,0-11.5,12.984q-5.467,6.893-5.809,9.055a5.4,5.4,0,0,0-.114,1.252q0,1.824,1.367,1.823a5.609,5.609,0,0,0,2.563-.854c1.025-.57,1.651-0.929,1.879-1.082q-0.23,2.279-1.025,6.606-2.622,13.666-2.62,19.931,0,5.924,2.278,5.923,1.935,0,2.961-4.385a127.7,127.7,0,0,0,2.051-13.155q0.111-1.595.569-5.011l0.57-5.581q1.024-10.706,1.48-11.618,0.684-1.024,4.328-5.239,11.275-12.642,11.618-15.034a1.439,1.439,0,0,0-.57-1.367,2.418,2.418,0,0,0-1.594-.569h0Zm38.724,15.148q0.684,8.315.683,17.54a133.772,133.772,0,0,1-.683,14.635q-0.684,6.094-2.05,7.8a12.488,12.488,0,0,1-3.588,2.164q-2.9,1.367-6.093,2.734-5.7,2.506-8.372,3.872t-2.676,2.392q0,1.935,3.3,1.936a23.007,23.007,0,0,0,5.581-.854,56.735,56.735,0,0,0,6.492-2.107,42.852,42.852,0,0,0,9.111-4.613,10.76,10.76,0,0,0,3.93-5.41,32.914,32.914,0,0,0,1.082-9.681q0-7.744.228-16.173,0.111-2.846.114-7.176a23.251,23.251,0,0,0-.684-6.833,3.052,3.052,0,0,0-2.733-2.164,5.268,5.268,0,0,0-2.392.4,1.5,1.5,0,0,0-1.253,1.538h0Zm-24.032,8.2a3.539,3.539,0,0,0,1.025,2.392,2.929,2.929,0,0,0,2.164,1.139,6.06,6.06,0,0,0,2.734-1.139,6.437,6.437,0,0,1,3.3-1.253,0.921,0.921,0,0,1,.911,1.139,6.679,6.679,0,0,1-1.139,3.36q-1.14,1.88-2.392,1.879a1.489,1.489,0,0,1-1.2-1.082,5.694,5.694,0,0,0-.911-1.48,1.467,1.467,0,0,0-1.082-.4,4.906,4.906,0,0,0-2.734.911,2.679,2.679,0,0,0-1.366,2.278,4.58,4.58,0,0,0,2.05,3.645,6.8,6.8,0,0,0,4.214,1.594,8.18,8.18,0,0,0,5.011-1.936,15.849,15.849,0,0,0,4.1-4.727,10.727,10.727,0,0,0,1.594-5.3,3.841,3.841,0,0,0-2.278-3.587,14.7,14.7,0,0,0-5.125-1.538,19.408,19.408,0,0,1,.4-2.107,8.719,8.719,0,0,0,.284-1.652,1.459,1.459,0,0,0-.74-1.48,4.829,4.829,0,0,0-1.993-.342,3.78,3.78,0,0,0-2.961,1.025,11.555,11.555,0,0,0-1.823,3.3q-0.342.684-1.2,2.449a7.09,7.09,0,0,0-.854,2.9h0Zm70.843-10.364a2.132,2.132,0,0,0,.57,1.366,2.423,2.423,0,0,0,1.708.8,20.059,20.059,0,0,0,2.392.114,13.617,13.617,0,0,0,4.214-.627q1.935-.624,2.961-0.854a10.189,10.189,0,0,1,1.936-.228,4.861,4.861,0,0,1,2.392.513,1.753,1.753,0,0,1,.911,1.651,2.581,2.581,0,0,1-.512,1.595,5.953,5.953,0,0,1-1.31,1.253q-0.8.57-1.139,0.8a22.615,22.615,0,0,1-4.783,3.075,12.917,12.917,0,0,0-2.62,1.538,4.813,4.813,0,0,0-1.424,2.335,16.186,16.186,0,0,0-.512,4.669,17.681,17.681,0,0,0,.911,6.037,3.263,3.263,0,0,0,3.189,2.5,2.449,2.449,0,0,0,2.449-1.309,8.81,8.81,0,0,0,.626-3.7l-0.114-4.328q0-1.935.57-2.164,4.9-2.733,6.606-3.816a12.1,12.1,0,0,0,3.3-3.359,9.7,9.7,0,0,0,1.594-5.695,5.44,5.44,0,0,0-3.417-5.182,16.553,16.553,0,0,0-7.289-1.652,34.908,34.908,0,0,0-8.257,1.253q-4.954,1.254-4.955,3.417h0Zm5.923,36.56a5.937,5.937,0,0,0,.683,2.791,2.466,2.466,0,0,0,2.392,1.309,4.8,4.8,0,0,0,1.139-.113,3.271,3.271,0,0,0,2.619-3.531,3.344,3.344,0,0,0-.626-2.278,2.584,2.584,0,0,0-1.993-.683q-4.215,0-4.214,2.5h0Z"/>
</svg>
