<svg xmlns="http://www.w3.org/2000/svg" width="400" height="400" viewBox="0 0 400 400">
  <defs>
    <style>
      .cls-1 {
        fill: #764ba2;
        fill-rule: evenodd;
      }
    </style>
  </defs>
  <path id="那如果_變這樣_呢_" data-name="那如果 變這樣 呢？" class="cls-1" d="M116.238,53.247a0.33,0.33,0,0,1-.1-0.244V52.759a3.353,3.353,0,0,0-1.368-2.539,6.247,6.247,0,0,0-2.832-1.465q-1.368.783-1.367,1.465a2.414,2.414,0,0,0,.733-0.146,2.627,2.627,0,0,1,.83-0.146q0.975,0,.976,2.051v0.781q0,3.713-.195,10.742l-0.1,5.371q0,1.662-.1,4.785t-0.391,3.223a5.415,5.415,0,0,1-1.66-1.367,6.337,6.337,0,0,0-1.563-1.367v0.293a3.942,3.942,0,0,0,1.368,1.953,21.869,21.869,0,0,0,2.148,1.953q-0.292,9.961-.293,20.02,0,10.744.1,16.113l0.1,16.211a13.245,13.245,0,0,1-.146,1.953,13.758,13.758,0,0,0-.147,2.051,0.4,0.4,0,0,0,.1.293q0.293-.1,1.172-2.734a16.158,16.158,0,0,0,.879-3.223q0-.391.781-3.906a29.142,29.142,0,0,0,1.074-4.688,101.881,101.881,0,0,0,.781-12.011q0-3.32-.292-6.543-0.2-3.319-.2-4.785-0.2-4.98-.2-14.844,0-.293.391-0.293a3.829,3.829,0,0,1,1.367.488q1.073,0.49,4,1.66l2.441,0.879a58.955,58.955,0,0,0,5.908.781q4.736,0.49,6.2.488a1.008,1.008,0,0,0,1.026-.537,3.766,3.766,0,0,0,.244-1.514V83.423a10.611,10.611,0,0,0-3.272-7.764,22.981,22.981,0,0,0-8.056-5.127l-0.293.1a18.046,18.046,0,0,0,2.441,3.516,41,41,0,0,1,2.539,3.418,4.511,4.511,0,0,1,.879,2.246,7.7,7.7,0,0,1-3.467.928q-2.49.245-4.638,0.244a20.706,20.706,0,0,1-4.3-.586,7.491,7.491,0,0,1-3.516-1.465q0-3.026-.195-9.082-0.2-5.859-.2-8.887,0-.975.1-2.832a4.456,4.456,0,0,1,.293-1.953Q126.3,51.393,127.176,51.1l0.488,0.1v0.488a15.886,15.886,0,0,1-.439,3.564q-0.439,1.9-1.319,4.834a29.607,29.607,0,0,0-1.855,8.594,3.937,3.937,0,0,0,.1,1.074l0.391,0.2h0.293V69.556a0.763,0.763,0,0,1-.1-0.488,3.339,3.339,0,0,1,.586-1.465l1.66-2.93q1.561-2.733,2.247-4.1t0.976-2.148q1.172-2.538,1.465-3.027a8.151,8.151,0,0,0,.635-2.539q0.341-2.147.439-3.32a11.381,11.381,0,0,0-.1-1.855,9.045,9.045,0,0,0-2.636-1.367,8.782,8.782,0,0,0-2.832-.586A4.807,4.807,0,0,0,124.93,46.9q-1.565,1.172-3.223,2.539-4.395,3.809-5.469,3.809h0ZM76.98,55.1a6.857,6.857,0,0,1-1.562-.928,7.421,7.421,0,0,1-1.465-1.123l-0.391-.488c-0.066,0-.1.017-0.1,0.049v0.147a6.906,6.906,0,0,0,1.465,4,4.181,4.181,0,0,0,3.418,2.051,7.175,7.175,0,0,0,3.027-.586A16.714,16.714,0,0,0,84.5,56.177a30.753,30.753,0,0,1,5.811-2.686,20.52,20.52,0,0,1,5.81-1.611,1.533,1.533,0,0,1,1.27.488,16.765,16.765,0,0,1,.2,3.125,25.654,25.654,0,0,1-.293,3.809,25.871,25.871,0,0,0-.2,2.637Q97,63.7,96.8,65.112T96.512,67.6q-0.392,2.541-.586,5.371,0,0.879-.049,2.832a18.384,18.384,0,0,1-.342,3.32q-0.1.49-.488,1.953l-0.586,1.953q-0.2.684-1.709,6.592t-2.295,5.908q-0.879,0-4.248-2.783T82.84,89.282a4.675,4.675,0,0,1,1.953-3.516,37.437,37.437,0,0,1,5.078-3.516A18.958,18.958,0,0,0,93.094,80q0-.975-1.758-1.269-2.735-.586-3.418-1.66A7.5,7.5,0,0,0,86.453,75.9a2.376,2.376,0,0,1-1.27-1.465,11.323,11.323,0,0,1,1.758-3.272,7.513,7.513,0,0,1,2.344-2.49,12.251,12.251,0,0,0,1.367-.537q1.268-.536,1.27-0.928a0.939,0.939,0,0,0-.293-0.684,3.328,3.328,0,0,1-.2-1.367q0-1.073-1.66-1.27a39.442,39.442,0,0,0-4.394-.2c-0.131-.2-0.342-0.537-0.635-1.025a3.252,3.252,0,0,0-1.074-1.123,4.755,4.755,0,0,0-2.3-.391A2.024,2.024,0,0,0,80.3,61.4a2.583,2.583,0,0,0-.781.928h0.1a1.286,1.286,0,0,0,.635-0.2,1.3,1.3,0,0,1,.635-0.2q1.366,0,1.367,2.246a5.419,5.419,0,0,1-.2,1.074A27.466,27.466,0,0,1,78.152,67.9q-2.93,1.856-4.59,3.125T71.9,72.973a0.394,0.394,0,0,0,.391.488,1.115,1.115,0,0,0,.635-0.244,1.394,1.394,0,0,1,.83-0.244,4.47,4.47,0,0,1,1.465.391,4.485,4.485,0,0,0,1.563.391,5.2,5.2,0,0,0,2.588-.83,7.719,7.719,0,0,1,1.611-.83v0.391q0,0.977-2.441,5.029t-2.93,4.053l-1.074-1.953-1.074-1.855c-0.066,0-.1.017-0.1,0.049v0.147a7.758,7.758,0,0,0,.977,2.637q0.195,0.391.439,0.977a2.6,2.6,0,0,1,.244.879q0,0.977-2.148,3.516a17.87,17.87,0,0,1-3.223,3.223,1.7,1.7,0,0,0-.293,1.172,12.854,12.854,0,0,0,.293,2.588q0.293,1.417,1.074,1.416l1.758-.879a24.3,24.3,0,0,1,4.688-2.344v0.293a19.557,19.557,0,0,1-1.807,6.641,69.153,69.153,0,0,1-3.565,7.52,32.073,32.073,0,0,1-2.539,3.418q-1.172,1.368-1.66,2.05a0.569,0.569,0,0,0,.391.1,5.418,5.418,0,0,0,2.832-1.27,25.931,25.931,0,0,0,3.418-2.978q1.659-1.707,1.953-2.1a15.009,15.009,0,0,0,1.709-2.88q1.22-2.392,1.807-3.76,0.195-.389,1.025-2.637t1.416-2.441a2.4,2.4,0,0,1,.879,1.074q0.488,0.684,1.66,2.1a14.043,14.043,0,0,1,1.758,2.588,30.881,30.881,0,0,0,2.441,4.053,9.448,9.448,0,0,0,3.32,2.3,7.483,7.483,0,0,0,2.637-.879,20.9,20.9,0,0,0,1.318-4.2q1.025-3.9,1.514-6.055a54.686,54.686,0,0,0,2.442-11.426q0.388-3.026.488-4.3l0.293-2.832c0.064-.2.13-0.44,0.2-0.732a4.331,4.331,0,0,0,.1-0.928,22.125,22.125,0,0,0-.1-2.441L101,68.579l0.1-3.809q0.1-1.268.1-3.711a16.874,16.874,0,0,1,.2-2.1q0.195-1.414.293-2.2a29.72,29.72,0,0,0,.684-5.566q0-1.268-2-1.855a13.418,13.418,0,0,0-3.76-.586,16.233,16.233,0,0,0-5.322.928A67.01,67.01,0,0,0,84.7,52.466q-3.028,1.369-4.736,2a8.737,8.737,0,0,1-2.978.635h0Zm8.3,25a1.455,1.455,0,0,1-.2.733,0.634,0.634,0,0,1-.586.342H84.4a2.02,2.02,0,0,1-.1-0.781,7.842,7.842,0,0,1,.1-0.977c0.064-.455.162-0.683,0.293-0.683a1.265,1.265,0,0,1,.586,1.367h0Zm-6.152,3.32q0,1.758-.488,2.051a0.912,0.912,0,0,1-.879-0.879,2.149,2.149,0,0,1,.488-0.977,1.52,1.52,0,0,1,.684-0.684,1.749,1.749,0,0,1,.2.488h0Zm-1.758,2.832a5.2,5.2,0,0,1-2.441,1.758,6.111,6.111,0,0,1,.977-1.416,2.174,2.174,0,0,1,1.172-.928,0.844,0.844,0,0,1,.293.586h0Zm101.074-40.43a26.164,26.164,0,0,0,1.563,8.008q0.388,0.879.781,1.9a5.409,5.409,0,0,1,.391,1.9q0,1.662-1.27,10.449t-1.953,9.668a39.384,39.384,0,0,1-3.662,2.1q-2.686,1.417-3.858,2a85.431,85.431,0,0,0-8.593,4.688q-1.466.977-4.737,2.832t-3.955,2.148a3.184,3.184,0,0,1-.976.2,1.617,1.617,0,0,1-.635-0.146c-0.229-.1-0.407-0.179-0.537-0.244l-0.391.2v0.1q0,1.076,2.979,2.881t4.248,1.807a1.092,1.092,0,0,0,.781-0.732,4.486,4.486,0,0,1,.684-1.025q5.175-4.3,7.031-5.811a50.019,50.019,0,0,1,4.98-3.467L176,82.251a7.938,7.938,0,0,1,1.172-.684,0.8,0.8,0,0,1,.2.586,21.846,21.846,0,0,1-.83,5.762,33.428,33.428,0,0,1-2.1,5.664c0,0.131.032,0.2,0.1,0.2a2.525,2.525,0,0,0,.781-0.1,1.7,1.7,0,0,0,.635-0.439l0.439-.439q0.294-.488,1.661-2.832a31.772,31.772,0,0,0,2.343-4.98,12.9,12.9,0,0,0,.879-3.32,14.8,14.8,0,0,1,.782-3.027,10.506,10.506,0,0,1,3.222-2.588q2.733-1.707,8.4-4.932,7.81-4.395,7.812-4.883a0.173,0.173,0,0,0-.195-0.2l-10.059,4.785q-1.368.783-4.394,2.393a21.77,21.77,0,0,1-3.321,1.611l-0.39-.293a62.35,62.35,0,0,1,1.172-6.543,43.163,43.163,0,0,0,1.464-9.473,9.321,9.321,0,0,0-2.636-6.348,44.658,44.658,0,0,1-3.906-5.762,1.357,1.357,0,0,0-.2-0.439,0.538,0.538,0,0,0-.39-0.342,0.173,0.173,0,0,0-.2.2h0ZM208.133,67.8a24.2,24.2,0,0,0,.976,5.566,21.544,21.544,0,0,1,.879,3.906q0.781,5.079,1.27,7.373a18.82,18.82,0,0,0,1.9,4.932,9.426,9.426,0,0,0,4.053,4,1.817,1.817,0,0,0,.976.2,0.525,0.525,0,0,0,.391-0.293,1.051,1.051,0,0,0,.195-0.586,1.879,1.879,0,0,0-.683-1.172,1.9,1.9,0,0,1-.684-1.269,23.5,23.5,0,0,0-.391-3.418,21.159,21.159,0,0,1-.39-2.344,47.054,47.054,0,0,0-1.27-8.008,18.639,18.639,0,0,0-3.125-6.348,3.7,3.7,0,0,1-1.074-2.246,13.756,13.756,0,0,1,.781-3.076,20.742,20.742,0,0,1,1.172-3.076,1.089,1.089,0,0,0,.391-0.586,0.173,0.173,0,0,0-.195-0.2q-1.077,0-3.125,2.686T208.133,67.8h0Zm10.84,6.445v0.293h0.293a5.127,5.127,0,0,0,1.318-.2,4.926,4.926,0,0,1,1.221-.2l1.855,0.1a10.087,10.087,0,0,0,3.272-.586q1.707-.586,2-0.684a8.981,8.981,0,0,1,2.441-.879l0.293,0.2a98.4,98.4,0,0,1-5.469,12.3,10.82,10.82,0,0,1-1.562,2.588,5.955,5.955,0,0,1-1.368,1.123,3.2,3.2,0,0,0-.976.781q0,0.783,1.9,1.123a19.685,19.685,0,0,0,3.467.342h5.371q4.59,0,7.129-.2a1.717,1.717,0,0,0,.488-1.27q0-1.758-2.636-2.881a24.939,24.939,0,0,0-5.372-1.611c-0.456,0-.683-0.162-0.683-0.488a1.094,1.094,0,0,1,.391-0.586,43.738,43.738,0,0,0,4.345-5.908q2.977-4.541,2.979-5.713,0-1.561-2.783-3.467a8.889,8.889,0,0,0-4.639-1.9q-0.783,0-6.055,2.637l-2.246,1.074a19.475,19.475,0,0,0-4.98,4h0Zm-32.911,3.613-0.293.293a4.689,4.689,0,0,1,.977,2.734,21.686,21.686,0,0,1-1.074,5.42,15.015,15.015,0,0,1-2.051,4.834,12.939,12.939,0,0,1-2.148-.244,12.943,12.943,0,0,0-1.954-.244,9.262,9.262,0,0,0-3.71.977,6.62,6.62,0,0,1-2.344.684q-1.27,0-1.27.781a2.392,2.392,0,0,0,.391,1.074,1.092,1.092,0,0,0,.683.684,24.5,24.5,0,0,0,2.833-1.074,11.093,11.093,0,0,1,3.027-.976,13.217,13.217,0,0,1,2.637.586,0.57,0.57,0,0,1,.2.391,6.4,6.4,0,0,1-1.416,2.1q-1.417,1.71-1.709,2.1a11.692,11.692,0,0,1-4.053,3.321,12.066,12.066,0,0,1-3.955,1.025,7.6,7.6,0,0,0-2.246.342q0,0.292,1.807.635a16,16,0,0,0,2.783.341,34.78,34.78,0,0,0,5.322-.292,7.191,7.191,0,0,0,2.686-.928,21.8,21.8,0,0,0,2.734-2.3q0.389-.389,1.367-1.319a20.376,20.376,0,0,1,2.051-1.709,29.131,29.131,0,0,1,3.467,2.539,22.369,22.369,0,0,1,3.174,2.832,7.907,7.907,0,0,0,1.757,1.953,24.493,24.493,0,0,0,2.784,1.66,7.942,7.942,0,0,0,2.588,1.074l0.683-.1a0.95,0.95,0,0,0,.195-0.683q0-1.367-2.441-4.395-0.684-.879-1.27-1.709a2.575,2.575,0,0,1-.585-1.318,2.906,2.906,0,0,0-.44-1.514q-0.44-.732-0.635-1.123a2.1,2.1,0,0,1-.341-0.977q-0.147-.78-0.538-0.781l-1.171.2a4.746,4.746,0,0,0-.342,1.27,9.917,9.917,0,0,1-.342,1.465,23.521,23.521,0,0,1-2.539-1.514,13.037,13.037,0,0,1-2.344-1.709V93.97a21.034,21.034,0,0,1,.586-3.125,20.46,20.46,0,0,0,.977-5.566,11.027,11.027,0,0,0-1.319-4.736q-1.318-2.685-3.174-2.686h0Zm83.887-24.9q0,2.541,6.543,12.891a12.5,12.5,0,0,0,.781,1.367,9.9,9.9,0,0,1,.586.977,40.421,40.421,0,0,1,3.125,6.934,6.09,6.09,0,0,0,1.075,2.1,2.324,2.324,0,0,0,1.66,1.221,0.408,0.408,0,0,0,.146-0.391,1.3,1.3,0,0,1-.049-0.293,1.553,1.553,0,0,1,.2-0.684,6.552,6.552,0,0,0,.293-2.1q0.1-1.806.1-2.978a21.607,21.607,0,0,0-.439-2.2,20.334,20.334,0,0,0-.635-2.2,2.535,2.535,0,0,0-.049.879c0.032,0.327.049,0.586,0.049,0.781,0,0.391-.131.586-0.391,0.586q-1.464-1.366-5.517-8.642t-4.053-8.643a2.412,2.412,0,0,1,.537-1.611,10.747,10.747,0,0,1,1.709-1.514,6.083,6.083,0,0,0,1.856-1.855,7.025,7.025,0,0,1,.586-1.123,6.165,6.165,0,0,1,.781-0.928,1.712,1.712,0,0,0,.683-0.684c0-.064-0.065-0.1-0.195-0.1q-1.075,0-4.15,1.758a18.116,18.116,0,0,0-3.955,2.734,4.035,4.035,0,0,0-.928,1.709,6.936,6.936,0,0,0-.342,2h0Zm36.035-6.934a34.694,34.694,0,0,0-6.738,1.074,82.764,82.764,0,0,0-8.984,2.588,17.7,17.7,0,0,0-5.762,2.881,5.089,5.089,0,0,0-1.367,3.32,5.2,5.2,0,0,1-.147,1.27,5.264,5.264,0,0,0-.146,1.27v0.391q0.2-.293.683-1.27a12.89,12.89,0,0,1,1.221-1.953,2.114,2.114,0,0,1,1.709-.977,3.4,3.4,0,0,1,.977.146,3.373,3.373,0,0,0,.976.146,5.3,5.3,0,0,0,2.686-.928,5.449,5.449,0,0,1,2-.928q0.975,0,.976,1.953v1.074a13.83,13.83,0,0,1-.195,2.734,7.517,7.517,0,0,1-2.832,1.514,10.981,10.981,0,0,1-3.125.83,0.172,0.172,0,0,0-.195.2q0,1.758,4.394,3.125a23.216,23.216,0,0,1-2.246,3.223q-0.391.49-1.9,2.685a8.679,8.679,0,0,0-1.514,2.686,3.238,3.238,0,0,0,.684,2.051,2.125,2.125,0,0,0,1.757.879,6.164,6.164,0,0,0,2.637-.781c0.2-.064.553-0.2,1.074-0.391a3.983,3.983,0,0,1,1.368-.293q0.1,1.465.1,4.3,0,2.735-.1,4.1a8.974,8.974,0,0,1-1.709.391,6.637,6.637,0,0,0-1.807.488q-0.978.391-4.395,1.27-2.148.391-3.125,0.684-0.684.2-11.865,3.418T257.84,92.407a2.853,2.853,0,0,1-1.758-.586,0.536,0.536,0,0,0-.586-0.293l-0.1.2A8.232,8.232,0,0,0,257.01,94.9q1.611,2.394,2.588,2.392a7.6,7.6,0,0,0,1.074-.391,6.513,6.513,0,0,0,.976-0.488,117.958,117.958,0,0,1,12.012-5.078,12.2,12.2,0,0,0,4.1-1.465,3.041,3.041,0,0,1,.976-0.488,43.263,43.263,0,0,1,7.91-2.344,5.888,5.888,0,0,1,.1,1.27v0.488a1.211,1.211,0,0,1-.195.684q-3.712,4.981-5.567,8.008a55.405,55.405,0,0,1-5.81,7.324q-3.369,3.615-6.3,3.614a5.262,5.262,0,0,1-1.074-.2l-0.293.1a5.469,5.469,0,0,0-.2,1.27v0.488a2.5,2.5,0,0,0,1.465.586l1.367-.1a2.153,2.153,0,0,1,1.026.293,2.013,2.013,0,0,0,.928.293,5.725,5.725,0,0,0,1.367-.293,5.659,5.659,0,0,1,1.465-.293q1.659-.2,3.613-2.783t5.176-7.764a77.6,77.6,0,0,1,5.273-8.008q2.147-2.733,3.906-2.734l0.782,0.2q0.1,1.172.1,3.32l-0.1,7.324q-0.2,5.079-.2,7.422,0,3.9-.293,4.1l-0.488.293a3.094,3.094,0,0,1-1.074-.488l-0.879-.586a3.64,3.64,0,0,0-2.051-1.074,6.527,6.527,0,0,1-1.855-1.563,18.457,18.457,0,0,0-1.465-1.367,14.22,14.22,0,0,0,1.953,3.027,11.079,11.079,0,0,1,1.562,2.442c0,0.064-.065.1-0.195,0.1l-0.293.293a2.917,2.917,0,0,0,.635,1.171q0.635,0.879.83,1.172a6.53,6.53,0,0,1,1.465,2.344,1.315,1.315,0,0,0,.635.977,7.234,7.234,0,0,0,.83.586,13.882,13.882,0,0,1,1.172.976,2.488,2.488,0,0,0,1.464.781,1.322,1.322,0,0,0,1.026-1.025,6.837,6.837,0,0,0,.537-2q0.587-2.735.781-17.285a93.575,93.575,0,0,1,.391-9.375,18.273,18.273,0,0,1,4,2.637q2.246,1.856,5.468,4.98a111.171,111.171,0,0,0,9.18,7.861,11.283,11.283,0,0,0,6.543,2.588l1.172-.1a58.637,58.637,0,0,1,5.859.293q0.975,0.1,2.442.195t3.418,0.1a3.067,3.067,0,0,0,.83-0.1,0.906,0.906,0,0,0,.537-0.635c0.13-.357.227-0.6,0.293-0.732a2.4,2.4,0,0,0-.781-0.83,4.345,4.345,0,0,1-.879-0.83,14.882,14.882,0,0,0-6.1-3.614,98.228,98.228,0,0,0-9.912-2.441q-0.783-.2-3.369-0.733a38.973,38.973,0,0,1-4.346-1.123,18.444,18.444,0,0,1-5.566-2.686,47.66,47.66,0,0,1-5.274-4.834q-0.293-.293-1.22-1.172a18.025,18.025,0,0,1-1.807-2,3.7,3.7,0,0,1-.879-2.295,2.078,2.078,0,0,1,.391-1.465q0.585-.488,5.176-0.928t6.445-.439q1.854,0,3.32.1t2.442,0.2q0.78,0.1,1.9.2t2.685,0.1a24.61,24.61,0,0,1,5.079,1.074,19.527,19.527,0,0,0,4.785.977,2.433,2.433,0,0,0,1.074-.293,0.879,0.879,0,0,0,.586-0.781q0-.682-2.3-2.783t-2.979-2.1a8.054,8.054,0,0,1-1.855-.732,6.619,6.619,0,0,0-2.734-.732,2.265,2.265,0,0,1-1.514-.537,2.1,2.1,0,0,0-.83-0.537,0.394,0.394,0,0,0-.488.391,2.89,2.89,0,0,0,.683,1.318,2.92,2.92,0,0,1,.684,1.318,0.518,0.518,0,0,1-.586.586l-0.684-.1a115.634,115.634,0,0,0-14.355.879l-2.344.293a31.651,31.651,0,0,1-4,.391h-0.39a10.007,10.007,0,0,1-.44-3.125q-0.147-2.637-.146-4.2a11.634,11.634,0,0,1,.195-1.758,14.089,14.089,0,0,1,4.59-1.562,5.535,5.535,0,0,1,.195,1.66V73.95a2.962,2.962,0,0,0,1.465,2.734,13.768,13.768,0,0,0,3.32-4.1,22.487,22.487,0,0,0,2.246-5.273,35.1,35.1,0,0,1,1.856-4.59q0.78-1.561,1.074-2.344a13.556,13.556,0,0,1,5.566-6.25q1.465-.879,1.465-1.66a3.087,3.087,0,0,0-.488-1.66,7.484,7.484,0,0,0-4.883-3.955,32.748,32.748,0,0,0-8.008-.83h0Zm8.4,4.3-1.172,1.563a34.563,34.563,0,0,0-3.662,5.713q-1.515,2.98-3.858,8.252-0.1.2-.732,1.709t-1.025,1.514a2.632,2.632,0,0,0-.44-0.293,1.357,1.357,0,0,0-.439-0.2,32.756,32.756,0,0,0-3.614-1.758,4.024,4.024,0,0,1-.879.391,0.945,0.945,0,0,0-.781.781l-0.195.488-0.293.1a5.464,5.464,0,0,1-.195-1.66,41.144,41.144,0,0,1,.39-4.59,6.841,6.841,0,0,1,2.246-1.562q0.683-.389,1.27-0.781a1.049,1.049,0,0,0,.586-0.684,1.077,1.077,0,0,0-.488-0.928,7.216,7.216,0,0,0-1.563-.732c-0.131-.064-0.31-0.146-0.537-0.244a4.961,4.961,0,0,1-.781-0.44,0.828,0.828,0,0,1-.44-0.684,5.525,5.525,0,0,1,.537-1.855,5.615,5.615,0,0,0,.537-1.758,1.938,1.938,0,0,0-.586-1.318,2.048,2.048,0,0,1-.585-0.83q0.388-.975,3.71-1.514a36.466,36.466,0,0,1,5.665-.537,25.412,25.412,0,0,1,4.345.586q2.978,0.586,2.979,1.27h0Zm-20.41,19.629q0,0.293-2.637,1.367a13.812,13.812,0,0,1-3.223,1.074l-0.1-.1q0-.975,2.295-4.346t3.173-3.76a5.538,5.538,0,0,1,.391,2.441q0.1,2.149.1,3.32h0ZM89.09,157.915q-0.293.1,0.488,1.074a1.846,1.846,0,0,1,.586.781,5.286,5.286,0,0,0,1.172,1.368,11.176,11.176,0,0,0,2.637,2.148c0.391,0.066.586,0.195,0.586,0.391a1.852,1.852,0,0,1-.488,1.171,7.509,7.509,0,0,1-2.148,1.954q-0.293.489,1.465,0.488a3.384,3.384,0,0,0,2.344-.879,5.348,5.348,0,0,1,1.855-1.074,10.086,10.086,0,0,0,1.856-.977,1.493,1.493,0,0,0,.488-1.074,3.478,3.478,0,0,0-1.172-2.832,9.982,9.982,0,0,0-3.516-1.953,5.123,5.123,0,0,0-1.953-.293l-2.539-.293a5.812,5.812,0,0,0-1.66,0h0Zm23.437,2.246v-0.1a0.835,0.835,0,0,0,0,1.27,2.231,2.231,0,0,1,.293.879,25.37,25.37,0,0,1-2.246,3.515l-0.586.977a13.017,13.017,0,0,1-.976,1.562l-0.879,1.563a4.258,4.258,0,0,1-.586.879l-0.879,1.172a0.781,0.781,0,0,1-.488.39q-0.587,0-.586.879a2.414,2.414,0,0,1-.391,1.074,2.607,2.607,0,0,1-.879.977,1.783,1.783,0,0,0-.879,1.074l-0.488.977a3.737,3.737,0,0,0-.391,1.855,5.024,5.024,0,0,0,.2,1.563q0.488,1.368.976,1.367l1.172-.391,1.172-.586,0.391-.195,0.683-.391,0.781-.293a1.591,1.591,0,0,1,.684-0.195l0.391-.1,1.172-.586a4.052,4.052,0,0,1,1.269-.489q0.292,0.294-1.367,2.735a17.975,17.975,0,0,1-2.637,3.222,6.339,6.339,0,0,0-1.172,1.66,3.636,3.636,0,0,0-.586,1.856,12.143,12.143,0,0,0,0,2.344,1.539,1.539,0,0,0,.977.195h0.684a10.226,10.226,0,0,0,2.343-.586,4.194,4.194,0,0,1,.977-0.293c0.13,0,.2.034,0.2,0.1a3.037,3.037,0,0,1-.488.976,23.961,23.961,0,0,1-4.59,4.688,3.01,3.01,0,0,0-.977,1.66,6.569,6.569,0,0,0-.195.781,4.231,4.231,0,0,0-.1.781,1.774,1.774,0,0,1-.585,1.27,8.656,8.656,0,0,1-3.418,1.758q-0.294.1-.2,0.293a3.429,3.429,0,0,0,1.27,0,21.512,21.512,0,0,0,2.246-.391l1.172-.39,1.172-.293q0.292-.1.879-0.342a5.213,5.213,0,0,0,.878-0.44l1.075-.586a8.258,8.258,0,0,0,3.027-1.66q0.879-.389,3.809-1.367a27.01,27.01,0,0,1,4.589-1.172q1.173-.2,1.172-0.488a0.922,0.922,0,0,0-.293-0.391,8.828,8.828,0,0,0-2.929-1.367l-1.66-.293a2.864,2.864,0,0,0-1.172.684l-1.172.586-1.172.488-1.66.586a18.586,18.586,0,0,1-4.59,1.562,0.521,0.521,0,0,1-.391-0.293,1.322,1.322,0,0,1,.586-0.781,2.348,2.348,0,0,1,1.172-.781,2.516,2.516,0,0,0,1.074-.586,6.574,6.574,0,0,1,1.465-1.074,3.807,3.807,0,0,0,1.172-1.075,7.09,7.09,0,0,1,1.074-.878l1.465-1.075a3.436,3.436,0,0,1,1.465-.781A13.686,13.686,0,0,0,118,188.97a1.368,1.368,0,0,0,.879-0.879,2.751,2.751,0,0,0-.879-1.172,7.746,7.746,0,0,0-2.539-1.172,6.855,6.855,0,0,0-1.953-.488,0.881,0.881,0,0,1-.586,0q-0.1-.39,3.223-4l2.539-2.832a3.456,3.456,0,0,0,.39-0.977,1.5,1.5,0,0,0-.488-1.074,9.5,9.5,0,0,0-2.637-1.465,6.058,6.058,0,0,0-2.343-.488h-0.586a2.157,2.157,0,0,0-.977.488,1.333,1.333,0,0,1-.781.488,0.172,0.172,0,0,1-.2-0.2q0-.292,5.567-5.664a7.954,7.954,0,0,1,2.051-1.758,0.785,0.785,0,0,0,.488-0.39,1.351,1.351,0,0,0,.293-0.977v-0.488a2.915,2.915,0,0,0-.586-1.953,11.218,11.218,0,0,0-1.465-1.661,3.2,3.2,0,0,0-1.269-.976,10.5,10.5,0,0,1-1.27-.488,3.8,3.8,0,0,1-1.074-.782c-0.195-.454-0.62-0.422-1.27.1h0Zm-37.5,9.277q-0.293.2,0.1,0.586a6.416,6.416,0,0,1,1.269,1.074l0.684,0.684v1.074q-0.293,3.321-4.883,9.082l-0.684.879-0.879,1.172q-2.149,2.929-2.734,3.027a0.6,0.6,0,0,1-.244.147,0.966,0.966,0,0,0-.342.244,5.525,5.525,0,0,0-.879,1.563,4.967,4.967,0,0,0-.683,1.66l-0.2.976a2.062,2.062,0,0,0,.488,1.367,1.56,1.56,0,0,0,1.074.879q0.781,0,2.344-1.562a11.187,11.187,0,0,1,2.051-1.367q1.659-.879,4.3-2.442l0.781-.488,0.586-.293a0.56,0.56,0,0,1,.391-0.195q0.389,0-.439,1.367a40.028,40.028,0,0,1-2.686,3.711l-1.172,1.562a5.889,5.889,0,0,1-1.367,1.172,2.062,2.062,0,0,0-.879.586c-0.2.456-.327,0.749-0.391,0.879a10.484,10.484,0,0,0-.488,1.27,2.151,2.151,0,0,0-.1.683,0.947,0.947,0,0,1-.1.684v0.488l0.293,0.879,0.293,0.781,0.391,0.488a1.681,1.681,0,0,0,.684.293,1.4,1.4,0,0,0,.977-0.488,19.063,19.063,0,0,1,2.734-2.344l0.586-.293,0.684-.488,0.391-.293,0.586-.293c0.325-.064.406,0.1,0.244,0.489a12.648,12.648,0,0,1-1.318,2.05,16.073,16.073,0,0,0-1.025,1.27,6.342,6.342,0,0,1-.439.586l-0.781.879q-1.662,1.075-1.66,1.855a7.762,7.762,0,0,1-.391.977,2.417,2.417,0,0,0-.1.879v0.586a8.013,8.013,0,0,0,.293,1.66,1.9,1.9,0,0,0,1.074.976h0.1a8.27,8.27,0,0,0,2.637-1.562,34.392,34.392,0,0,0,3.223-2.735,18.587,18.587,0,0,0,2.246-2.343,8.733,8.733,0,0,1,1.465-1.661L84.6,200.3l0.977-1.27a2.249,2.249,0,0,0,.684-1.172c0-.064-0.066-0.1-0.2-0.1a1.974,1.974,0,0,0-.977.683l-1.172.879-1.758,1.27a7.606,7.606,0,0,1-1.66,1.172,1.434,1.434,0,0,0-.683.488l-1.563.976a2.42,2.42,0,0,1-.977.391h-0.1q-0.586-.587,2.051-3.418l1.074-1.27,1.27-1.269a5.991,5.991,0,0,0,1.465-1.758,0.975,0.975,0,0,0,.2-0.976q-0.586-.879-2.539-0.879-1.465,0-1.562-.684a1.479,1.479,0,0,1,.391-0.879,26.755,26.755,0,0,0,4-5.371,3.3,3.3,0,0,0,.391-1.465,1.055,1.055,0,0,0-.293-0.781,2.946,2.946,0,0,0-1.953-.879A3.139,3.139,0,0,1,80.3,183.6a2.458,2.458,0,0,0-1.074-.2,1.09,1.09,0,0,0-1.074.586,2.135,2.135,0,0,1-.684.586,0.957,0.957,0,0,1-.684.1,1,1,0,0,1,.2-0.684,1.627,1.627,0,0,1,.488-0.684,4,4,0,0,0,.586-0.781l1.074-1.562a10.374,10.374,0,0,0,2.246-3.809,4.784,4.784,0,0,1,.586-1.367,0.907,0.907,0,0,1,.488.586,3.417,3.417,0,0,0,3.027,1.269,9.933,9.933,0,0,0,3.809-.976q1.465-.78,2.051-1.172a14.113,14.113,0,0,1,3.125-1.758l1.953-.781a25.377,25.377,0,0,1,3.32-.977,5.6,5.6,0,0,0,2.149-.781,0.782,0.782,0,0,0-.391-0.586,3.759,3.759,0,0,0-.976-0.683,6.306,6.306,0,0,0-1.465-.391l-0.488-.1-0.391-.1H97.781a0.4,0.4,0,0,0-.293-0.1,1.883,1.883,0,0,0-.977.293,1.071,1.071,0,0,1-.684.391,3.037,3.037,0,0,0-.977.488,24.779,24.779,0,0,1-2.539,1.074l-1.9.635c-0.684.229-1.45,0.439-2.295,0.635l-3.516.781-1.758.2-0.586-.1a2.584,2.584,0,0,1-1.074-1.172,7.2,7.2,0,0,0-2.051-2.149,18.121,18.121,0,0,0-3.32-1.074,1.137,1.137,0,0,0-.781.195h0Zm18.066,8.4a2.728,2.728,0,0,0-.977.586,2.971,2.971,0,0,1-1.953,1.074h-0.2c-0.326-.13-0.488-0.064-0.488.195a2.389,2.389,0,0,0,1.074,1.367,1.091,1.091,0,0,1,.684.879,13.893,13.893,0,0,1-1.074,1.953,4.435,4.435,0,0,0-.391,1.465,2.8,2.8,0,0,0,.293,1.27,3.079,3.079,0,0,1,.293,1.172q0,0.489-3.125,3.418l-0.977.879-0.1,1.269A7.284,7.284,0,0,0,86.551,196l0.977,2.539q0.195,0.585,2.051,4.98a4.429,4.429,0,0,0,.684,1.368,1.129,1.129,0,0,1,.391.781l-0.1.195a12.526,12.526,0,0,1-1.953,1.465q-2.442,1.856-2.93,2.344-1.662,1.368-6.836,6.64-4.395,4.3-7.617,7.715-2.248,2.541-2.734,2.637a2.351,2.351,0,0,0-.977.976,2.681,2.681,0,0,0-.488,1.368,20.16,20.16,0,0,0,.293,2.734l0.293,0.391a0.6,0.6,0,0,0,.684.39H68.68a1.724,1.724,0,0,0,1.172-.683A22.78,22.78,0,0,1,72,229.4l3.223-3.613q5.761-7.032,7.129-7.031c0.325,0,.488-0.1.488-0.293a3.635,3.635,0,0,1,1.758-.782,10.65,10.65,0,0,1,3.613,1.465,12.66,12.66,0,0,0,3.516,1.465q1.268,0.49,2.051.83a1.076,1.076,0,0,1,.781.635q0,0.587-2.246,2.832a30.8,30.8,0,0,1-4.2,3.516q-6.544,4.3-11.914,4.59l-1.465.1V233.6q0,0.682,1.855,1.27a4.518,4.518,0,0,0,2.539-.195,30.363,30.363,0,0,1,5.957-.782,6.186,6.186,0,0,0,2.051-.195,1.883,1.883,0,0,1,.977-0.293,8.265,8.265,0,0,0,3.32-1.074l0.781-.293,1.367-.781a6.9,6.9,0,0,1,.83-0.684,3.1,3.1,0,0,0,.732-0.683l1.172-1.172a12.746,12.746,0,0,0,.977-1.465l1.269-1.856,0.684-.683,0.977,0.586a21.946,21.946,0,0,1,4.785,4.2,21.262,21.262,0,0,0,2.051,1.953q1.757,1.367,2.246,1.855l2.148,1.661a9.049,9.049,0,0,1,1.123.634,4.37,4.37,0,0,1,.44.342,7.409,7.409,0,0,0,3.515,1.172,48.728,48.728,0,0,0,5.469.293,9.618,9.618,0,0,1,2.051.293,19.726,19.726,0,0,0,4.492.391,35.49,35.49,0,0,0,3.711-.1,4.671,4.671,0,0,0,1.66-.586,1.209,1.209,0,0,0,.879-1.074,1.029,1.029,0,0,0-.391-0.879q-0.1-.1-2.05-1.074a25.4,25.4,0,0,0-7.227-2.149l-3.223-.586a16.615,16.615,0,0,0-2.343-.39l-2.735-.391a9.437,9.437,0,0,0-1.953-.293,14.837,14.837,0,0,1-5.371-1.758,75.723,75.723,0,0,1-8.984-5.664,1.3,1.3,0,0,1,0-1.269l0.683-2.149a21.371,21.371,0,0,0,1.66-5.176,5.236,5.236,0,0,0-.586-2.05,3.9,3.9,0,0,1-.586-1.563v-0.1q0.294-1.269,2.735-2.442a6.624,6.624,0,0,0,1.66-.879q1.562-.78,2.246-1.074,3.124-1.367,2.93-1.27a1.952,1.952,0,0,0,.976-0.585,0.523,0.523,0,0,1,.586-0.391q0.975,0,.1-0.977a4.944,4.944,0,0,0-2.441-.781,17.614,17.614,0,0,0-2.54-.293,0.926,0.926,0,0,0-.976.488q0,0.294-2.734,1.856-2.736,1.368-5.567,3.027l-2.539,1.465-2.051,1.172-1.367.879q-0.49.2-3.223,1.855a6.016,6.016,0,0,1-1.074.684l-0.977.586-0.684.39-0.781.489-1.172.683-1.465.879a8.108,8.108,0,0,1-1.074.391,2.713,2.713,0,0,1,.879-1.074,12.459,12.459,0,0,0,1.563-1.856q0.488-.683,1.465-1.855l2.246-2.442q2.831-3.222,3.613-3.222H92.7c0.259,0,.391-0.1.391-0.293a8.678,8.678,0,0,0-.1-0.879,10.282,10.282,0,0,1-.1-1.465l0.1-.391a1.473,1.473,0,0,1,.781-0.488,12.851,12.851,0,0,0,4.883-3.027,2.3,2.3,0,0,0,.488-1.66V196.88a5.725,5.725,0,0,1,.684-1.758,5.431,5.431,0,0,0,.684-1.856q0-1.171-3.614-1.464l-1.66-.1-1.074.781a19.811,19.811,0,0,1-3.32,2.051,1.144,1.144,0,0,0-.781.488,2.755,2.755,0,0,0,1.758.293,5.317,5.317,0,0,0,2.539-.488,8.255,8.255,0,0,1,1.465-.488c0.13,0,.2.033,0.2,0.1l-0.1.879q-0.1.294-.244,0.635c-0.1.229-.212,0.5-0.342,0.83a4.939,4.939,0,0,1-.684,1.27,4.057,4.057,0,0,1-1.074.878,4.839,4.839,0,0,0-1.269.879,1.063,1.063,0,0,1-.684.489l-0.684-2.051q-1.076-2.832-2.148-3.516a2.85,2.85,0,0,1-1.465-2.051,2.609,2.609,0,0,1,.684-1.367,5.615,5.615,0,0,1,1.855-1.465,10.6,10.6,0,0,1,1.856-.976,8.065,8.065,0,0,0,2.637-1.27,15.426,15.426,0,0,1,1.953-.781,6.365,6.365,0,0,0,1.563-.683l0.683-.391q0.586-.2.391-0.488,0-.487-1.758-0.977a10.026,10.026,0,0,0-3.125-.586,2.591,2.591,0,0,0-1.562.586,2.384,2.384,0,0,1-.879.488,0.556,0.556,0,0,1-.391-0.2,1.277,1.277,0,0,1,.1-1.074,4.515,4.515,0,0,1,.977-1.953,2.782,2.782,0,0,1,1.66-.489,7.035,7.035,0,0,0,3.516-1.562,3.668,3.668,0,0,0,1.172-1.074,1.02,1.02,0,0,0-.684-0.489,15.049,15.049,0,0,0-2.539-.39,6.08,6.08,0,0,0-2.344.293h0Zm6.348,33.2a22.913,22.913,0,0,1-1.465,4.883q-1.758,4.1-2.539,4.589a3.393,3.393,0,0,1-1.367-.585q-0.879-.39-3.516-1.27-4.395-1.367-4.394-1.855,0-.294,3.711-2.051a26.666,26.666,0,0,1,4.1-1.758,2.254,2.254,0,0,0,.879-0.293,7.122,7.122,0,0,1,1.855-.879,5.834,5.834,0,0,0,1.953-.781q0.78-.292.781,0h0Zm99.024-53.223a8.048,8.048,0,0,0,2.881,3.906,12.9,12.9,0,0,0,4.443,2.735,8.041,8.041,0,0,1,1.758.781,9.4,9.4,0,0,1-3.272,3.076,17.529,17.529,0,0,0-2.49,1.709h0.781a33.349,33.349,0,0,0,7.032-.879q4-.879,4.1-2.832,0.1-2.439-2.588-3.857a34.619,34.619,0,0,0-7.08-2.588l-1.855-.586a19.4,19.4,0,0,1-1.856-.83,6.029,6.029,0,0,0-1.855-.635h0ZM169.949,170.9a12.941,12.941,0,0,0,1.612,3.125,5.836,5.836,0,0,0,2.2,2.149,3.759,3.759,0,0,1,.976.683,3.868,3.868,0,0,1-.634,1.611q-0.538.831-1.123,1.612a7.594,7.594,0,0,0-1.27,2.051q1.367,0,4.639-2.686A18.818,18.818,0,0,0,180.4,175.4q0.1-1.172-2.05-2.2a8.68,8.68,0,0,0-3.516-1.025,3.109,3.109,0,0,0-.879.195,3.194,3.194,0,0,1-.976.195,2.692,2.692,0,0,1-1.807-.879,3.636,3.636,0,0,0-1.123-.879,0.087,0.087,0,0,0-.1.1h0Zm14.942,11.133a1.458,1.458,0,0,1-1.123-.879,1.592,1.592,0,0,0-.831-0.879,0.937,0.937,0,0,0-.683.293l-0.1.391a1.976,1.976,0,0,0,.147.683,1.9,1.9,0,0,1,.146.586c0.064,0.391.147,0.977,0.244,1.758a7.96,7.96,0,0,0,.537,2.1,1.525,1.525,0,0,0,1.563.927q0.195,0,4.59-1.855,1.073-.487,5.273-2.2t9.033-3.516a35.993,35.993,0,0,1,7.178-2.1,16.3,16.3,0,0,0,2.051-.39c0.391-.064,1.057-0.162,2-0.293a19.09,19.09,0,0,1,2.588-.195q7.713,0,8.008-.293a1.058,1.058,0,0,0,.293-0.782q0.1-1.073-2.1-2a9.754,9.754,0,0,0-3.565-.927,9.5,9.5,0,0,0-2.148.341,17.378,17.378,0,0,1-2.246.44,41.6,41.6,0,0,0-7.715,1.66q-4.592,1.369-11.133,3.613l-4.492,1.465a70.2,70.2,0,0,1-7.519,2.051h0Zm14.257,3.32h-0.195v0.391a16.059,16.059,0,0,0,1.514,1.709,3.283,3.283,0,0,0,1.513,1.025,0.829,0.829,0,0,1,.245.049,1.009,1.009,0,0,1,.341.244,25.324,25.324,0,0,1-2.246,3.613,23.089,23.089,0,0,1-1.22,2,8.279,8.279,0,0,0-.831,1.416q-0.2,3.516,1.954,4.688a1.92,1.92,0,0,1-.879.879,7.085,7.085,0,0,1-.733.586,1.118,1.118,0,0,0-.537.586,0.659,0.659,0,0,0,.488.195,3.714,3.714,0,0,0,1.758-.537,7.3,7.3,0,0,0,1.66-1.221,19.364,19.364,0,0,1,4.4-2.783,22.372,22.372,0,0,1,5.078-1.807,3.822,3.822,0,0,0,1.367-.488,0.663,0.663,0,0,0,.2-0.488,4.615,4.615,0,0,0-1.27-2.344,5.76,5.76,0,0,1-1.269.1,6.645,6.645,0,0,1-1.368-.2,6.856,6.856,0,0,0-1.367-.2q-0.976,0-5.078,2.149l-2.148.976c-0.132,0-.2-0.1-0.2-0.293a1.353,1.353,0,0,1,.1-0.586,10.715,10.715,0,0,1,2.295-4,16.708,16.708,0,0,1,3.857-2.832,18.069,18.069,0,0,0,1.758-1.074q0.292-.195,1.66-0.976a7.719,7.719,0,0,1,2.637-.977q1.367-.195,1.367-0.977,0.1-1.367-2.051-1.9a16.968,16.968,0,0,0-4.1-.537,7.971,7.971,0,0,0-3.028,1.367q-0.489.292-2.441,1.27a7.651,7.651,0,0,1-3.223.976h0Zm-33.691,8.692h-0.1q-0.2,2.735-.2,4.1-0.392,7.911,2.93,7.91,0.78,0,2.441-1.66,2.05-1.854,2.93-1.855l0.1,0.1-0.1,2.247a20.5,20.5,0,0,0-.2,2.246l-0.1,4.1a15.469,15.469,0,0,0,1.074,6.348q0.292,0.585,1.367,2.539t1.074,2.051q0,0.292-2.343,1.123a12.52,12.52,0,0,1-3.028.83,3.152,3.152,0,0,1-1.318-.342q-0.732-.341-1.025-0.439c-0.261.131-.7,0.341-1.319,0.634a10.507,10.507,0,0,0-1.611.928,5.1,5.1,0,0,0,.293.684,1.5,1.5,0,0,1,.195.586,6.269,6.269,0,0,1-.683,1.416,4.334,4.334,0,0,0-.684,1.9v0.293q-0.1.293,0.537,0.635a2.346,2.346,0,0,0,1.026.341l0.39-.1a8.729,8.729,0,0,1,5.127-2.149,68.947,68.947,0,0,1,7.959-.39,14.722,14.722,0,0,1,3.906.537q1.953,0.537,4.59,1.513l4.395,1.758q7.325,2.93,12.353,4.492a33.01,33.01,0,0,0,9.815,1.563,27.155,27.155,0,0,0,6.445-.928q3.71-.928,10.059-2.783l5.468-1.562a10.279,10.279,0,0,0,1.123-.342,1.187,1.187,0,0,0,1.026-1.026,58.822,58.822,0,0,0-12.891-1.074q-2.929,0-8.789.586t-8.887.586q-4.005,0-6.787-.195a28.231,28.231,0,0,1-5.322-.879,51.84,51.84,0,0,0-6.25-1.66,37.5,37.5,0,0,1-7.617-2.051,1.131,1.131,0,0,1,.781-0.195h0.586a1.586,1.586,0,0,0,.977-0.293,0.573,0.573,0,0,0,.1-0.391q0-.879-2.929-3.32a32.437,32.437,0,0,1-4.4-4.248,6.666,6.666,0,0,1-1.66-4.346,80.222,80.222,0,0,1,1.465-11.231q0.292-.681.634-1.757a5.9,5.9,0,0,0,.342-1.563q0.1-.487-1.9-1.221a10.093,10.093,0,0,0-2.686-.732,20.2,20.2,0,0,0-2.734,1.66,29.969,29.969,0,0,1-4.492,2.735,6.172,6.172,0,0,1-.83-2.393q-0.147-1.22-.244-3.565a8.3,8.3,0,0,0-.1-1.074,0.713,0.713,0,0,0-.293-0.683h0Zm35.254,15.722a6.06,6.06,0,0,0,1.318-.2,5.99,5.99,0,0,1,1.221-.195,10.677,10.677,0,0,0,4.492-1.367q0.488-.195,1.416-0.586a6.784,6.784,0,0,1,1.611-.489q-0.2,1.758-.439,2.979a8.641,8.641,0,0,1-1.66,3.125,10.5,10.5,0,0,1-4.248,3.174v1.172c0,0.131-.017.39-0.049,0.781a1,1,0,0,0,.146.781,0.415,0.415,0,0,0,.44.293H205.4a24.575,24.575,0,0,0,4.3-.586,17.565,17.565,0,0,1,4.492-.684,3.422,3.422,0,0,0,1.856-.39l0.684-.293a2.121,2.121,0,0,0,.781-1.563,2,2,0,0,0-.733-1.22,6.967,6.967,0,0,0-1.22-1.026,2.394,2.394,0,0,1-1.026-.488,3.558,3.558,0,0,1-.927-0.781q0-.587,2.05-3.614a11.5,11.5,0,0,0,1.66-2.832,2.426,2.426,0,0,0-.878-1.367,8.282,8.282,0,0,0-1.368-1.172,10.583,10.583,0,0,0-3.222-.781q-2.248,0-5.86,2.539a22.99,22.99,0,0,0-5.273,4.785h0Zm-8.594-4.492-0.195.2a29.079,29.079,0,0,0,1.758,4.883q1.267,3.127,1.367,3.614a30.821,30.821,0,0,0,2.881,6.689q1.707,2.882,4.345,2.783a1.374,1.374,0,0,0,.1-0.586,23.164,23.164,0,0,0-1.221-7.324,19.182,19.182,0,0,0-3.076-6.445,6.368,6.368,0,0,0-2.051-1.612q-1.368-.732-1.953-1.123a8.761,8.761,0,0,0-.781-0.634,1.949,1.949,0,0,0-1.172-.44h0Zm118.555-52.832q-0.49.586,0.293,0.879a1.444,1.444,0,0,1,.976.977,1.242,1.242,0,0,1,.684.586,1.517,1.517,0,0,1-.488,1.123,23.3,23.3,0,0,1-1.66,1.806,7.3,7.3,0,0,0-1.075,1.123q-0.684.831-1.172,1.319a62.776,62.776,0,0,1-4.492,4.882A11.564,11.564,0,0,1,301.59,167a43.439,43.439,0,0,1-3.174,3.223q-1.223,1.076-1.416,1.269a0.874,0.874,0,0,0-.586.586,4.2,4.2,0,0,0-.293,2.148,10.044,10.044,0,0,0,.293,2.442,0.767,0.767,0,0,0,.781.586,12.3,12.3,0,0,0,4.492-1.074,7.742,7.742,0,0,1,2.051-.782l0.1,0.684a0.65,0.65,0,0,1-.049.537,1.478,1.478,0,0,0-.146.537l-0.2.684a16.619,16.619,0,0,1-2.051,1.367q-5.272,3.321-6.835,4.492-1.758,1.172-1.758,2.149v0.195a1.3,1.3,0,0,0,1.074,1.367,20.82,20.82,0,0,1,3.516.879,2.769,2.769,0,0,0,.976.684,0.4,0.4,0,0,1,.488.292,0.535,0.535,0,0,1,.293.586l-0.39.586-0.977,1.27a20.989,20.989,0,0,0-2.051,1.465q-1.661,1.27-2.05,1.562a1.9,1.9,0,0,0-.879,1.465,1.085,1.085,0,0,0,.1.488l0.391,2.246q0.487,2.736.977,2.833a0.717,0.717,0,0,0,.634-0.391q0.44-.488.733-0.781a18.9,18.9,0,0,1,4.3-3.125,1.141,1.141,0,0,1,1.269.1,0.851,0.851,0,0,1,.684.391,5.59,5.59,0,0,0,.39.488,1.5,1.5,0,0,1,.489,1.074q-0.1.1,0.1,0.391a6.792,6.792,0,0,0,1.172.293l0.293,0.391a3.426,3.426,0,0,1-1.367,2.05q3.025-.388,4.346-0.683a11.531,11.531,0,0,1,1.611-.293,0.452,0.452,0,0,0,.488-0.293,0.934,0.934,0,0,0,.293-0.684,1.876,1.876,0,0,0-.439-1.22c-0.293-.357-0.473-0.57-0.537-0.635a0.655,0.655,0,0,0-.293-0.147,0.606,0.606,0,0,1-.293-0.146,0.341,0.341,0,0,0-.293-0.293c-0.131-.13,0-0.391.39-0.781a2.132,2.132,0,0,0,.733-0.537,11.127,11.127,0,0,1,.928-0.831,9.232,9.232,0,0,0,1.855-1.953,8.085,8.085,0,0,0,.635-0.732,1.209,1.209,0,0,1,.439-0.44,0.835,0.835,0,0,0,.879-0.878,0.934,0.934,0,0,0-.39-0.782,4.278,4.278,0,0,0-3.321-1.562c-0.195-.064-0.375-0.13-0.537-0.2s-0.31-.129-0.439-0.195a1.79,1.79,0,0,0-1.075-.2,0.887,0.887,0,0,1-.488.049,0.2,0.2,0,0,1-.195-0.147q-0.392-1.172,1.172-3.515a10.877,10.877,0,0,0,1.367-2.247,0.941,0.941,0,0,1,.342-0.537,4.36,4.36,0,0,0,.537-0.634l1.465-1.368a4.67,4.67,0,0,0,.683-0.586,1.952,1.952,0,0,1,.684-0.488,1.981,1.981,0,0,0,1.367-1.66v-0.2a3.115,3.115,0,0,0-1.855-1.953l-2.247-1.172a1.683,1.683,0,0,0-1.074-.391,1.055,1.055,0,0,0-.781.293,0.841,0.841,0,0,1-.586.684q-0.391.292-.586,0a2.853,2.853,0,0,1-.1-0.977,4,4,0,0,1,1.563-2.441l1.953-1.075a2.663,2.663,0,0,1,.879-0.439q0.683-.243,1.27-0.439a5.251,5.251,0,0,0,1.66-.684,2.315,2.315,0,0,0-.1-1.074l-0.684-.489q-0.585-.389-1.318-0.781t-1.025-.586l-0.782-.39q-0.684-.39-0.39-0.879a3.207,3.207,0,0,0,.342-0.537,1.482,1.482,0,0,1,.634-0.635q0.294-.2,1.221-0.928t3.272-2.2a3.452,3.452,0,0,1,.439-0.537,3.581,3.581,0,0,0,.439-0.537,4.831,4.831,0,0,0,.586-0.879,5.8,5.8,0,0,0-.195-1.856,7.389,7.389,0,0,0-2.637-3.711q-3.222-1.367-4.1-.781h0Zm-3.906,15.137-0.586.781a3.9,3.9,0,0,1-.684.537,3.869,3.869,0,0,0-.684.537,4.9,4.9,0,0,1-.878.391l-0.1-.1a1.1,1.1,0,0,1,.391-0.586l1.171-.781a3.251,3.251,0,0,0,.684-0.342,2.78,2.78,0,0,0,.293-0.244c0.195-.195.325-0.259,0.391-0.195h0ZM303.25,183.4a5.26,5.26,0,0,1-.977,2.93,10.665,10.665,0,0,1-1.074.781,2.463,2.463,0,0,1-1.172-.391,8.943,8.943,0,0,1-1.855-.585l-0.977-.489q-0.292-.585,3.418-2.636a8.478,8.478,0,0,1,2.539-1.172,4.81,4.81,0,0,1,.1,1.562h0Zm4.394,10.254a2.509,2.509,0,0,1-.39,1.172,5.668,5.668,0,0,1-1.318,1.416,8.433,8.433,0,0,0-.733.537q-0.489.49-1.855,0-1.173-.293-1.075-0.488a4.7,4.7,0,0,1,.538-0.391q0.438-.292,1.123-0.781a10.165,10.165,0,0,0,1.318-.684,6.08,6.08,0,0,1,1.221-.586l1.074-.195h0.1Zm-7.714-36.426A9.187,9.187,0,0,1,297,158.7q-0.978.292-2.148,0.733a12.692,12.692,0,0,1-1.661.537l-1.269.1-0.488-.781a5.285,5.285,0,0,1-.879-0.977c-0.066-.195-0.132-0.259-0.2-0.195a1.129,1.129,0,0,0-.195.781l0.195,1.563a6,6,0,0,0,.489,2.441q0.389,0.49.927,1.27a3.965,3.965,0,0,0,.83.976,1.346,1.346,0,0,0,.977.293q0.78,0,2.344-1.562a46.173,46.173,0,0,0,3.125-3.809q1.56-1.854,1.562-2.539,0-.487-0.195-0.488a0.665,0.665,0,0,0-.488.195h0Zm6.347,81.836q0.488-.1.977-3.027a29.419,29.419,0,0,0,.488-4.1l-0.39-8.984q-0.391-6.153-.489-8.984l-0.1-1.563a1.907,1.907,0,0,1,.927.928,2.884,2.884,0,0,0,.928,1.025q0.587,0,5.469,4.395,5.468,4.688,8.594,7.08t4.589,2.392a8.638,8.638,0,0,0,1.709-.293,8.772,8.772,0,0,1,1.9-.293h6.933l1.953,0.1a15.675,15.675,0,0,0,1.954.195h0.292q-0.1-.975-4.3-2.636a56.29,56.29,0,0,0-6.153-2.149l-2.051-.586q-5.859-1.758-9.521-3.222a29.589,29.589,0,0,1-7.08-4.1,11.34,11.34,0,0,0-2.051-1.562q-2.149-1.758-2.637-2.149a14.5,14.5,0,0,1,2.539-1.123q1.758-.635,2.442-0.83a20.83,20.83,0,0,0,4.2-1.562,37.275,37.275,0,0,0,4.151-3.077,4.082,4.082,0,0,0,1.611-3.076q0-1.56-2.051-2.3a11.623,11.623,0,0,0-3.906-.732,3.314,3.314,0,0,0-1.172,1.172,1.365,1.365,0,0,0,.635.049,4.047,4.047,0,0,1,.439-0.049,2.42,2.42,0,0,1,1.416.537,2.341,2.341,0,0,1,.928,1.221,13.55,13.55,0,0,1-3.125,3.515,33.6,33.6,0,0,1-5.078,3.711,9.047,9.047,0,0,1-4.1,1.563h-0.488a8.751,8.751,0,0,1-.1-1.563,4.847,4.847,0,0,1,.684-3.223,0.309,0.309,0,0,0,.195-0.39q0-.782-1.953-1.27a13.658,13.658,0,0,0-3.125-.488,3.894,3.894,0,0,1,.732,1.562,7.6,7.6,0,0,1,.2,2.149c-0.034.781-.049,1.3-0.049,1.562a3.208,3.208,0,0,1-.1,1.27q-0.292-.195-0.293.781a1.292,1.292,0,0,1-.146.586,1.508,1.508,0,0,0-.147.684v0.1a4.271,4.271,0,0,1,.684,1.563l0.1,6.933q0,9.573-.684,11.719a3.7,3.7,0,0,1-1.758.293,3.911,3.911,0,0,1-1.025-.146,3.9,3.9,0,0,0-1.026-.147h-0.39a18.1,18.1,0,0,1,1.562,1.221,8.686,8.686,0,0,0,1.563,1.123q0.194,0.292.732,1.221a8.8,8.8,0,0,0,1.416,1.806,4.624,4.624,0,0,0,2.539,1.172h0Zm-32.519-7.617a7.66,7.66,0,0,0,1.9-1.465,2.468,2.468,0,0,0,.83-1.562l-0.976-26.758a37.744,37.744,0,0,1,.341-4.346,11.839,11.839,0,0,1,.83-3.662l0.2-.781a2.267,2.267,0,0,0-.391-1.563v-0.781a17.391,17.391,0,0,1,1.514-1.66,15.412,15.412,0,0,0,2.783-5.469q-0.1-1.854-.684-1.855a3.9,3.9,0,0,0-1.611,1.269,8.324,8.324,0,0,1-2,1.66q-0.1-3.222.391-9.668,0.389-7.226.293-9.57a2.321,2.321,0,0,0-2.149-2.2,23.6,23.6,0,0,0-4.883-.44,3.456,3.456,0,0,0-1.464.44,1,1,0,0,0-.782.928,2.71,2.71,0,0,0,1.221.341,5.146,5.146,0,0,1,1.807.586,1.894,1.894,0,0,1,.781,1.807l0.195,3.906q0.1,1.857.244,5.322t0.049,4.834q0,6.35-.683,7.032a13.786,13.786,0,0,1-2.246,1.953,30.143,30.143,0,0,1-3.174,1.953q-1.809.976-2.295,1.269a36.893,36.893,0,0,0-4.492,2.54q-4.4,2.929-6.25,2.929a1.023,1.023,0,0,1-.537-0.146,1.026,1.026,0,0,0-.538-0.147h-0.1a3.673,3.673,0,0,0,1.123,1.563,6.23,6.23,0,0,0,1.611,1.367H255.2a10.306,10.306,0,0,0,4.981-1.465,70.779,70.779,0,0,0,6.347-4.1q1.561-1.173,2.881-2a4.369,4.369,0,0,1,2-.831q0,0.978-2.734,6.4t-4.1,7.861a15.981,15.981,0,0,1-4.687,5.176,39.241,39.241,0,0,1-5.127,2.539q-1.222.391-1.514,0.488,0,0.49,2.344.489a26.783,26.783,0,0,0,5.273-.489q1.953-.388,3.955-3.173a58.2,58.2,0,0,0,4.151-6.885q0.292-.487,1.025-1.856a5.887,5.887,0,0,1,1.123-1.66,7.117,7.117,0,0,1,.293,2.051v9.961q0,2.541.1,3.809a47.744,47.744,0,0,1-.1,6.933,0.172,0.172,0,0,1-.195.195,3.4,3.4,0,0,1-1.66-1.171,4.658,4.658,0,0,0-1.661-1.27,24.019,24.019,0,0,1,2.051,4.687,13.87,13.87,0,0,1,1.074,1.954,4.979,4.979,0,0,0,.879,1.513,6.658,6.658,0,0,0,1.856,1.221h0Zm14.844,1.758a13.244,13.244,0,0,0,7.031-6.25,43.709,43.709,0,0,0,3.808-10.84l0.879-3.516-0.39-.683a12.931,12.931,0,0,0-4.1-.684q-0.391.2-4.541,2.686t-6.4,2.49a1.611,1.611,0,0,1-.635-0.147,1.859,1.859,0,0,0-.733-0.146,0.624,0.624,0,0,0,.391.586,11.292,11.292,0,0,1,.83,1.562,10.2,10.2,0,0,0,.879,1.612,1.246,1.246,0,0,0,1.025.634A27.277,27.277,0,0,0,290.7,218.9q3.663-1.611,5.42-2.49a6.39,6.39,0,0,1-.391,2.539q-0.489,1.466-.586,1.66,0,1.171-2.343,4.834t-3.321,3.662a0.587,0.587,0,0,1-.439-0.586,2.213,2.213,0,0,0-.147-0.683,2.669,2.669,0,0,0-.83,1.611,8.853,8.853,0,0,0-.341,2.1,1.624,1.624,0,0,0,.879,1.66h0Zm-3.711-25.488,1.562-3.516a5.274,5.274,0,0,0-.684-2.051l0.1-.195a4.844,4.844,0,0,0-1.367-2.539,17.576,17.576,0,0,0-2.832-2.783q-1.466-1.122-1.856-.635a17.706,17.706,0,0,1,1.661,3.515q0.681,1.956,1.66,5.079a20.1,20.1,0,0,0,.976,3.173q0.39,0.831.782-.048h0ZM142.654,353.4a6.284,6.284,0,0,0,1.074-1.855,4.463,4.463,0,0,1,.977-1.856,54.287,54.287,0,0,0,7.715-10.6,115.788,115.788,0,0,0,6.348-13.427q0.878-2.245,2.148-6.446,1.854-5.565,2.246-6.347a3.806,3.806,0,0,1,1.367,1.269,6.6,6.6,0,0,0,1.66,1.563q2.832-1.953,4.151-2.686a19.477,19.477,0,0,1,3.467-1.416q10.448-3.514,10.449-5.176,0-.975-2.344-1.9a10.8,10.8,0,0,0-3.613-.928,5.9,5.9,0,0,0-2.637.684,5.427,5.427,0,0,1-1.855.684,0.259,0.259,0,0,1-.293-0.293,21.129,21.129,0,0,1,1.611-1.416q1.026-.829,1.416-1.221a61.5,61.5,0,0,0,6.055-6.543q4-4.784,4-6.152a2.479,2.479,0,0,0-1.27-1.807,13.98,13.98,0,0,0-2.93-1.611q-1.66-.683-1.953-0.782h-0.39q-0.978,0-6.543,2.735t-7.129,3.711a3.344,3.344,0,0,1-1.367.195,8.543,8.543,0,0,1-1.563-1.416,3.694,3.694,0,0,0-1.562-1.221,0.173,0.173,0,0,0-.2.2,7.809,7.809,0,0,0,2.149,5.127,6.174,6.174,0,0,0,4.687,2.49,4.964,4.964,0,0,0,2.246-.537q1.074-.535,3.125-1.709a6.709,6.709,0,0,1,2.637-1.27,33.456,33.456,0,0,1-3.174,4.834q-1.807,2.3-4.834,6.006-2.833,3.42-3.418,3.516a1.162,1.162,0,0,0-.39.146,0.546,0.546,0,0,0-.293.537l-0.293.489-0.2-.586a6.384,6.384,0,0,0,.2-1.856v-1.269l-0.293-.586q-0.978,0-2.2,3.222a42.177,42.177,0,0,0-1.709,5.371,53.8,53.8,0,0,1-2.295,7.032q-1.416,3.514-3.662,8.105-0.292.586-1.562,3.32-2.149,4.2-8.692,12.11-0.293.391-1.757,2.246a7.3,7.3,0,0,0-1.465,2.246,7.942,7.942,0,0,0,.635,2.881,4.557,4.557,0,0,0,1.513,2.2h0ZM132.6,331.821l0.781,0.488a0.846,0.846,0,0,0,.635-0.781,1.161,1.161,0,0,1,.341-0.83,2.443,2.443,0,0,1,1.368-.244q0.975,0,5.078-2.734t4.2-3.614c0.064-.325.13-0.732,0.2-1.22a13.3,13.3,0,0,0,.1-1.709V320.3a1.825,1.825,0,0,0-.244-0.2,0.612,0.612,0,0,0-.342-0.1,2.33,2.33,0,0,0-.781.293,5.283,5.283,0,0,1-1.514.439q-0.929.147-1.318,0.244a26.354,26.354,0,0,1,1.562-3.222,31.016,31.016,0,0,0,1.807-3.614,8.48,8.48,0,0,0,.635-3.222,2.888,2.888,0,0,0-1.709-2.393,6.248,6.248,0,0,0-3.174-1.025,4.539,4.539,0,0,0-1.709.439,1.612,1.612,0,0,0-1.123,1.026,14.928,14.928,0,0,1-2.344,2.246l-1.953,1.953v0.39a3.253,3.253,0,0,0,1.465.293h2.344a3.592,3.592,0,0,0,.927-0.146c0.357-.1.635-0.179,0.83-0.244q-0.879,3.126-2.246,7.031t-2.246,3.906h-0.1a17.223,17.223,0,0,1-.831-3.76q-0.244-2.1-.341-2.587a40.966,40.966,0,0,0-1.465-7.178,8.746,8.746,0,0,0-3.321-4.444,3.856,3.856,0,0,0-.732-0.732,3.1,3.1,0,0,0-.83-0.537l-0.488.293a1.123,1.123,0,0,0-.2.781,9.8,9.8,0,0,0,.391,2.442q0.389,1.464.586,2.246,0.388,2.343.488,3.515a93.744,93.744,0,0,0,1.905,9.864,25.779,25.779,0,0,0,3.369,7.519h0Zm53.222,23.535a107.789,107.789,0,0,0,13.233-.879q7.079-.879,7.08-3.613a16.805,16.805,0,0,0-1.074-3.809,31.9,31.9,0,0,1-1.172-4.1q-0.1-.682-0.2-2.2a9.407,9.407,0,0,0-.488-2.588,2.112,2.112,0,0,0-.1-0.537,0.366,0.366,0,0,0-.292-0.342q-0.49,0-1.856,3.76t-1.562,4.248a18.946,18.946,0,0,1-.977,2.832q-1.271,1.368-8.74,2.3a100.448,100.448,0,0,1-11.475.927,11.746,11.746,0,0,1-5.664-1.025q-1.758-1.026-1.758-4.736a66.342,66.342,0,0,1,1.465-8.3,24.866,24.866,0,0,1,4.492-3.028,41.4,41.4,0,0,0,4.883-3.759q3.516-2.978,6.3-5.86t2.783-4.052q0-3.32-6.933-3.321a8.177,8.177,0,0,0-1.465.1,2.327,2.327,0,0,0,1.269,1.318,4.854,4.854,0,0,1,1.465,1.221q0,0.684-5.273,6.006a74.052,74.052,0,0,1-6.934,6.494,52.078,52.078,0,0,1,1.563-6.055q1.172-4.687,1.171-4.882,0-1.366-2.05-2.051a12.126,12.126,0,0,0-3.809-.684h-0.488v0.586a4.81,4.81,0,0,0,.146,1.025,0.635,0.635,0,0,0,.537.635l0.391,0.293a1.837,1.837,0,0,1,.195.977,20.324,20.324,0,0,1-.879,5.371q-0.1.391-.488,2.1a14.664,14.664,0,0,0-.391,3.272,3.141,3.141,0,0,1-.39,1.855,0.468,0.468,0,0,1-.244-0.1,0.613,0.613,0,0,0-.342-0.1,0.789,0.789,0,0,0-.781.977,6.287,6.287,0,0,0,.976,2.734A22.988,22.988,0,0,1,168,340.9c-0.034.781-.049,1.433-0.049,1.953a17.474,17.474,0,0,0,.293,3.809,9.06,9.06,0,0,0,3.418,5.908,12.85,12.85,0,0,0,5.908,2.344,63.866,63.866,0,0,0,8.252.439h0Zm52.735-52.441q-2.93,4.3-2.93,6.933l0.1,1.758a0.722,0.722,0,0,0,.195.635,0.784,0.784,0,0,0,.586.439l0.195-.195a2.65,2.65,0,0,0,1.123.781,4.293,4.293,0,0,0,1.612.293,2.794,2.794,0,0,0,1.269-.293,15.668,15.668,0,0,0-.146-1.757,18.06,18.06,0,0,1-.147-2.246,9.3,9.3,0,0,1,2.93-7.129,10.782,10.782,0,0,1,3.808-2.2,14,14,0,0,1,4.688-.83,8.013,8.013,0,0,1,6.738,3.028,7.677,7.677,0,0,1,1.27,2.685,11.934,11.934,0,0,1,.488,3.272,9.609,9.609,0,0,1-1.9,5.273,24.864,24.864,0,0,1-4.541,5.078,17.755,17.755,0,0,0-4.395,5.713,22.466,22.466,0,0,0-2.148,6.885q-0.491,3.516-.586,4.1a6.8,6.8,0,0,0-.2,1.661q0,0.879.391,0.878a2.016,2.016,0,0,0,.928-0.439,2.007,2.007,0,0,1,.928-0.439q0.293-.1,1.171-3.907,1.074-4.98,1.758-6.054a19.912,19.912,0,0,1,3.076-4.053,37.1,37.1,0,0,1,4.151-3.76,22,22,0,0,0,5.42-5.908,12.685,12.685,0,0,0,2-6.69,10.405,10.405,0,0,0-1.856-5.957,12.68,12.68,0,0,0-6.054-4.394,9.458,9.458,0,0,0-3.516-.586,23.263,23.263,0,0,0-5.957.83,14.114,14.114,0,0,0-4.2,1.611q-1.662,1.077-3.809,2.735a10.7,10.7,0,0,0-2.441,2.246h0Zm5.761,43.848a2.918,2.918,0,0,0,.44,2,5.518,5.518,0,0,0,1.709,1.416,0.562,0.562,0,0,0,.195.391,1.54,1.54,0,0,0,.391.293l0.293,0.1h0.879a3.261,3.261,0,0,0,1.709-.391A3.4,3.4,0,0,0,251,349.5q0.44-.683.732-1.074a3,3,0,0,0,.586-1.856,4.908,4.908,0,0,0-.83-2.734,3.426,3.426,0,0,0-2.2-1.563q-0.49-.293-1.66.537a12.232,12.232,0,0,0-2.246,2.1,3.717,3.717,0,0,0-1.075,1.856h0Z"/>
</svg>
